<svg width="234" height="26" viewBox="0 0 234 26" fill="none" xmlns="http://www.w3.org/2000/svg">
<path d="M35.5792 22.3955C36.8622 22.3955 37.6024 21.7626 37.6024 19.9124C37.6024 14.7027 29.707 13.6802 29.707 6.42552C29.707 2.33563 31.7302 0.0472412 35.6779 0.0472412C39.6256 0.0472412 41.6488 2.38432 41.6488 6.42552V7.20454H37.7998V6.13338C37.7998 4.33188 37.0596 3.60155 35.7766 3.60155C34.4936 3.60155 33.7534 4.2832 33.7534 6.13338C33.7534 11.3431 41.6488 12.3656 41.6488 19.6203C41.6488 23.7102 39.5269 25.9985 35.5299 25.9985" fill="white"/>
<path d="M54.6262 17.332L49.4941 0.339478H53.7379L56.8467 11.9275L59.9556 0.339478H63.8046L58.6725 17.332V25.7552H54.6262V17.332Z" fill="white"/>
<path d="M76.1907 7.35071V25.7552H72.5391V0.339478H77.6217L81.7668 15.5792V0.339478H85.3691V25.8039H81.224L76.1907 7.35071Z" fill="white"/>
<path d="M94.8438 0.339478H101.259C105.305 0.339478 107.279 2.57918 107.279 6.62038V19.4743C107.279 23.5642 105.305 25.7552 101.259 25.7552H94.8438V0.339478ZM98.8902 3.94247V22.1035H101.16C102.443 22.1035 103.233 21.4706 103.233 19.6204V6.37693C103.233 4.57543 102.443 3.89378 101.16 3.89378H98.8902V3.94247Z" fill="white"/>
<path d="M116.605 0.339478H120.652V25.8039H116.605V0.339478Z" fill="white"/>
<path d="M142.019 16.2617V19.6212C142.019 23.7111 139.946 25.9995 135.999 25.9995C132.002 25.9995 129.979 23.6624 129.979 19.6212V6.37779C129.979 2.2879 132.051 -0.000488281 135.999 -0.000488281C139.996 -0.000488281 142.019 2.33659 142.019 6.37779V8.86094H138.17V6.13435C138.17 4.33285 137.38 3.60251 136.048 3.60251C134.765 3.60251 133.926 4.28416 133.926 6.13435V19.8647C133.926 21.6662 134.716 22.3478 136.048 22.3478C137.331 22.3478 138.17 21.7149 138.17 19.8647V16.213H142.019V16.2617Z" fill="white"/>
<path d="M164.471 25.7562H160.375L159.684 21.1307H154.7L154.01 25.7562H150.309L154.454 0.291748H160.375L164.471 25.7562ZM155.243 17.6738H159.142L157.168 4.81984L155.243 17.6738Z" fill="white"/>
<path d="M170.936 0.339478H183.47V3.99116H179.226V25.8039H175.179V3.94247H170.936V0.339478Z" fill="white"/>
<path d="M196.349 11.0511H201.925V14.7028H196.349V22.1522H203.356V25.8039H192.303V0.339478H198.422V3.99116H196.349V11.0511Z" fill="white"/>
<path d="M32.4205 22.3453H0V25.997H32.4205V22.3453Z" fill="white"/>
<path d="M234.001 0.194336H201.58V3.84602H234.001V0.194336Z" fill="white"/>
</svg>
