<svg width="434" height="453" viewBox="0 0 434 453" fill="none" xmlns="http://www.w3.org/2000/svg">
<g style="mix-blend-mode:overlay">
<path d="M421.834 108.669L421.834 108.669C429.545 128.145 432.075 143.837 431.869 157.392C431.662 170.959 428.715 182.489 425.324 193.703C424.692 195.794 424.044 197.875 423.396 199.955C417.091 220.191 410.798 240.386 419.363 269.845C429.531 305.537 421.978 331.519 407.292 353.215C399.913 364.116 390.713 373.962 380.96 383.43C376.39 387.868 371.713 392.207 367.051 396.534C366.74 396.823 366.429 397.112 366.118 397.4C361.154 402.008 356.217 406.606 351.493 411.261L351.487 411.267C327.528 435.083 302.092 448.475 273.845 450.38C245.564 452.287 214.143 442.701 178.194 419.916C151.305 402.761 124.893 400.117 100.68 397.694C95.7642 397.202 90.9389 396.719 86.2187 396.126C72.1694 394.359 59.0275 391.635 46.8491 384.987C34.7055 378.357 23.3743 367.743 13.1181 349.966L13.1177 349.965C-1.25526 325.072 0.545025 298.151 8.00834 271.402C11.7392 258.03 16.8637 244.777 22.0323 231.908C22.8446 229.886 23.6585 227.872 24.4683 225.868C28.7954 215.159 33.005 204.742 36.2306 194.887C49.0914 156.154 62.8549 130.188 79.1378 108.463C94.8372 87.5167 112.914 70.4596 134.995 49.6232C135.857 48.8099 136.725 47.9908 137.599 47.1655C138.058 46.7323 138.524 46.2916 138.997 45.8441C151.501 34.0192 169.001 17.47 192.565 8.77025C216.873 -0.204545 247.842 -0.885832 286.665 21.3642C302.451 30.4283 317.389 36.6878 331.25 41.9236C336.042 43.7334 340.68 45.413 345.175 47.0401C353.745 50.1431 361.788 53.0554 369.357 56.3166C380.833 61.2612 390.987 66.9202 399.743 75.0237C408.486 83.1151 415.92 93.7225 421.834 108.669Z" stroke="#2BF12E" stroke-width="4" stroke-linecap="round" stroke-linejoin="round"/>
</g>
</svg>
