<svg width="474" height="483" viewBox="0 0 474 483" fill="none" xmlns="http://www.w3.org/2000/svg">
<g style="mix-blend-mode:overlay" filter="url(#filter0_f)">
<path d="M7.28309 203.744L7.28375 203.739C9.95886 181.332 19.0696 165.454 32.047 153.454C45.0802 141.402 62.0967 133.185 80.6975 126.302C89.989 122.864 99.6325 119.774 109.337 116.701C110.177 116.435 111.018 116.17 111.859 115.904C120.717 113.102 129.604 110.291 138.234 107.237C157.113 100.553 174.97 92.6337 188.98 80.8354C196.016 74.9935 202.896 66.3695 210.095 57.2272C210.416 56.8205 210.737 56.4125 211.059 56.0036C218.028 47.1486 225.377 37.8121 233.679 29.6384C242.356 21.0961 251.977 13.9257 263.118 9.97043C274.219 6.0295 286.953 5.2359 301.967 9.636C365.683 28.4154 400.658 75.5658 413.638 136.106L413.639 136.113C423.45 181.134 432.318 205.494 440.676 225.825C442.173 229.467 443.651 232.973 445.112 236.44C451.793 252.292 458.129 267.325 464.427 290.85C469.155 308.561 467.509 322.767 462.059 334.787C456.584 346.864 447.195 356.896 436.155 366.095C428.667 372.334 420.547 378.095 412.444 383.843C408.552 386.605 404.664 389.363 400.852 392.17C389.206 400.746 378.357 409.723 371.052 420.313C330.389 479.217 253.253 490.498 185.834 458.588C170.957 451.546 156.636 445.875 143.132 440.528C141.123 439.732 139.132 438.944 137.16 438.159C121.901 432.087 107.789 426.243 95.0099 418.99C69.5837 404.56 49.3717 384.525 36.5721 345.889C35.6194 343.003 34.6704 340.137 33.7282 337.292C25.8552 313.521 18.455 291.177 13.3329 270.034C7.60021 246.371 4.76235 224.363 7.28309 203.744Z" stroke="#2BF12E" stroke-width="4" stroke-linecap="round" stroke-linejoin="round"/>
</g>
<defs>
<filter id="filter0_f" x="0.350586" y="0.668945" width="472.862" height="481.37" filterUnits="userSpaceOnUse" color-interpolation-filters="sRGB">
<feFlood flood-opacity="0" result="BackgroundImageFix"/>
<feBlend mode="normal" in="SourceGraphic" in2="BackgroundImageFix" result="shape"/>
<feGaussianBlur stdDeviation="2" result="effect1_foregroundBlur"/>
</filter>
</defs>
</svg>
