<svg width="451" height="472" viewBox="0 0 451 472" fill="none" xmlns="http://www.w3.org/2000/svg">
<g style="mix-blend-mode:overlay" filter="url(#filter0_f)">
<path d="M162.968 67.202L162.967 67.2027C149.907 78.695 135.005 87.4483 119.834 95.4364C114.752 98.1123 109.656 100.695 104.588 103.263C94.4495 108.401 84.4186 113.484 74.8161 119.154C46.1932 136.055 22.0657 157.795 13.5533 200.016C4.80109 243.799 -0.41054 295.08 22.0564 347.294L22.0609 347.304C30.0196 366.095 39.4869 379.151 50.1868 388.757C60.8925 398.368 72.9252 404.61 86.1432 409.654C95.2462 413.128 104.813 416.001 114.886 419.027C119.514 420.418 124.249 421.84 129.095 423.368C144.42 428.198 160.662 434.027 177.515 443.094L177.516 443.094C212.157 461.741 246.354 468.641 277.285 464.169C308.193 459.702 336.001 443.859 357.884 416.723L357.884 416.722C366.026 406.63 376.643 397.593 387.525 388.661C388.854 387.57 390.188 386.48 391.522 385.39C401.159 377.513 410.825 369.614 419.247 360.931C428.815 351.065 436.665 340.295 440.925 327.615C445.174 314.965 445.899 300.269 440.985 282.458L162.968 67.202ZM162.968 67.202C167.74 62.9972 172.793 57.6304 178.178 51.9098C180.316 49.6391 182.506 47.3126 184.752 44.981C192.722 36.7069 201.517 28.2277 211.578 21.3577C221.625 14.4963 232.895 9.26937 245.808 7.4616C258.708 5.65556 273.377 7.24396 290.264 14.1993C321.992 27.3156 347.973 39.977 368.191 56.8899C388.347 73.7503 402.841 94.8939 411.464 125.11L411.464 125.11M162.968 67.202L411.464 125.11M411.464 125.11C423.606 167.642 426.826 191.859 429.083 212.941M411.464 125.11L429.083 212.941M429.083 212.941C429.311 215.075 429.53 217.179 429.747 219.268M429.083 212.941L429.747 219.268M429.747 219.268C431.681 237.882 433.492 255.306 440.985 282.458L429.747 219.268Z" stroke="#2BF12E" stroke-width="4" stroke-linecap="round" stroke-linejoin="round"/>
</g>
<defs>
<filter id="filter0_f" x="0.0566406" y="0.782104" width="450.348" height="470.696" filterUnits="userSpaceOnUse" color-interpolation-filters="sRGB">
<feFlood flood-opacity="0" result="BackgroundImageFix"/>
<feBlend mode="normal" in="SourceGraphic" in2="BackgroundImageFix" result="shape"/>
<feGaussianBlur stdDeviation="2" result="effect1_foregroundBlur"/>
</filter>
</defs>
</svg>
