<svg width="204" height="36" viewBox="0 0 204 36" fill="none" xmlns="http://www.w3.org/2000/svg">
<path fill-rule="evenodd" clip-rule="evenodd" d="M25.7645 22.6803C25.7645 27.0826 22.2935 31.5406 15.6619 31.5406C11.8522 31.5406 7.81683 29.1166 5.47461 26.6646C5.41817 25.8288 5.41817 18.6123 5.47461 17.6928C7.56286 15.5753 10.6106 13.2069 15.7465 13.2069C20.6003 13.2069 25.7645 15.6867 25.7645 22.6803ZM16.0005 8.80462C11.0339 8.80462 8.24013 10.3649 5.50283 12.3432V1.78322C5.50283 0.808019 4.68446 0 3.69677 0H0.479733V29.9803L0 35.1906H2.22935H2.96306C4.28938 35.1906 4.5998 34.299 4.76912 33.491L5.19241 31.9028C8.21191 34.299 10.921 35.9429 16.4803 35.9429C27.0062 35.9429 30.8158 27.9463 30.8158 22.5967C30.7876 17.4421 27.6834 8.80462 16.0005 8.80462Z" fill="white"/>
<path fill-rule="evenodd" clip-rule="evenodd" d="M38.5766 19.2509C39.8182 15.2386 42.9788 13.1211 47.6915 13.1211C54.5489 13.1211 56.5242 17.4119 57.0604 19.2509H38.5766ZM47.3529 8.71875C39.1692 8.71875 33.2148 14.3749 33.2148 22.1765C33.2148 30.1173 39.3667 35.8571 47.8326 35.8571C56.0163 35.8571 58.81 32.9036 61.2651 30.3124L62.1964 29.3372L58.161 26.4673L57.6813 27.0803C56.1856 28.9192 54.1256 31.4547 48.1995 31.4547C42.1887 31.4547 38.9434 27.5818 38.3226 23.6532H62.5632L62.5915 22.678C62.5915 18.61 61.378 15.3222 58.9511 12.8982C56.2703 10.1955 52.1502 8.71875 47.3529 8.71875Z" fill="white"/>
<path fill-rule="evenodd" clip-rule="evenodd" d="M77.8007 31.5962C74.0475 31.5962 73.3138 30.3424 73.3138 28.1969V13.9869H83.1625V11.3678C83.1625 10.3926 82.3441 9.58462 81.3564 9.58462H73.2856V3.23191C73.2856 2.25672 72.4672 1.47656 71.4796 1.47656H68.2625V9.61248H63.0137V14.0148H68.2907V28.587C68.2907 30.621 68.2907 35.9985 76.9824 35.9985C78.5909 35.9985 80.5381 35.7199 83.3318 35.3019L83.8397 35.2183V30.7324L82.7956 30.9275C80.8767 31.3176 79.4939 31.5962 77.8007 31.5962Z" fill="white"/>
<path fill-rule="evenodd" clip-rule="evenodd" d="M100.349 19.7279C96.1447 19.2264 92.5044 18.8084 92.5044 16.5516C92.5044 13.5981 96.5962 13.1523 99.0231 13.1523C103.228 13.1523 106.445 14.5454 108.646 17.3317L109.041 17.8333L112.512 14.7126L112.202 14.2947C111.214 12.9294 108.223 8.75 99.0796 8.75C93.4921 8.75 87.5095 10.8676 87.5095 16.7745C87.5095 22.8207 94.0282 23.6008 99.785 24.2974C104.244 24.8268 108.11 25.3005 108.11 27.9196C108.11 30.5665 104.244 31.486 100.942 31.486C96.4269 31.486 92.8148 29.8421 90.1904 26.5543L89.7953 26.0528L86.0703 29.4241L86.4372 29.87C89.9928 33.9658 94.508 35.8883 100.632 35.8883C108.59 35.8883 113.161 32.8791 113.161 27.6409C113.133 21.2325 106.332 20.4245 100.349 19.7279Z" fill="white"/>
<path fill-rule="evenodd" clip-rule="evenodd" d="M129.81 19.7279C125.606 19.2264 121.965 18.8084 121.965 16.5516C121.965 13.5981 126.057 13.1523 128.484 13.1523C132.689 13.1523 135.906 14.5454 138.107 17.3317L138.502 17.8333L141.973 14.7126L141.663 14.2947C140.675 12.9294 137.684 8.75 128.54 8.75C122.953 8.75 116.97 10.8676 116.97 16.7745C116.97 22.8207 123.489 23.6008 129.246 24.2974C133.705 24.8268 137.571 25.3005 137.571 27.9196C137.571 30.5665 133.705 31.486 130.403 31.486C125.888 31.486 122.276 29.8421 119.651 26.5543L119.256 26.0528L115.531 29.4241L115.898 29.87C119.454 33.9658 123.969 35.8883 130.093 35.8883C138.051 35.8883 142.622 32.8791 142.622 27.6409C142.566 21.2325 135.793 20.4245 129.81 19.7279Z" fill="white"/>
<path fill-rule="evenodd" clip-rule="evenodd" d="M169.74 22.3724C169.74 28.0007 165.987 31.5114 159.919 31.5114C153.909 31.5114 150.043 27.9171 150.043 22.3724C150.043 17.9422 153.147 13.1777 159.919 13.1777C166.692 13.1777 169.74 17.7751 169.74 22.3724ZM159.919 8.77539C151.284 8.77539 145.02 14.2922 145.02 21.8987C145.02 30.5362 150.72 35.9137 159.919 35.9137C169.091 35.9137 174.763 30.5362 174.763 21.8987C174.763 14.2922 168.526 8.77539 159.919 8.77539Z" fill="white"/>
<path fill-rule="evenodd" clip-rule="evenodd" d="M193.164 8.77539C189.721 8.77539 186.504 9.97349 183.343 12.4254V11.283C183.343 10.3078 182.525 9.49982 181.537 9.49982H178.32V35.1335H183.343V17.7193C185.037 15.964 188.451 13.1498 192.712 13.1498C194.885 13.1498 196.494 13.6792 197.538 14.738C198.526 15.7411 199.005 17.2178 198.977 19.1682V35.1614H204V18.4438C203.972 10.0292 197.199 8.77539 193.164 8.77539Z" fill="white"/>
</svg>
