<svg width="262" height="52" viewBox="0 0 262 52" fill="none" xmlns="http://www.w3.org/2000/svg">
<path d="M36.5493 36.5734C36.5493 45.0916 29.4753 51.9995 20.6982 51.9995V15.4261C20.6982 6.90784 27.7723 0 36.5493 0V36.5734Z" fill="white"/>
<path d="M7.90368 51.9993C12.2688 51.9993 15.8074 48.565 15.8074 44.3286C15.8074 40.0922 12.2688 36.658 7.90368 36.658C3.5386 36.658 0 40.0922 0 44.3286C0 48.565 3.5386 51.9993 7.90368 51.9993Z" fill="white"/>
<path d="M85.4993 7.41661C85.4993 6.39951 85.9359 5.42479 86.6783 4.70434C87.4206 3.94151 88.4686 3.51771 89.5603 3.56009C90.6083 3.56009 91.6126 3.94151 92.3549 4.70434C93.0973 5.42479 93.5339 6.39951 93.5339 7.41661V36.0227C93.5776 39.7945 92.0493 43.3967 89.2546 46.0242C86.5473 48.7365 82.8356 50.2198 78.9493 50.1774C77.9013 50.1774 76.8969 49.796 76.1546 49.0332C75.3686 48.3551 74.9756 47.338 74.9756 46.3209C74.9756 45.3038 75.4123 44.329 76.1546 43.6086C76.8533 42.8458 77.9013 42.4644 78.9493 42.4644C80.6959 42.5067 82.3989 41.7863 83.6216 40.5573C84.8443 39.3707 85.5429 37.7179 85.4993 36.0227C85.4993 35.9803 85.4993 7.41661 85.4993 7.41661ZM125.454 50.135C119.079 50.2198 112.922 47.7618 108.468 43.2696C103.883 38.9469 101.307 33.0138 101.394 26.784C101.307 20.5542 103.839 14.5787 108.468 10.256C112.922 5.80619 119.035 3.3482 125.454 3.43296C131.83 3.3482 137.987 5.80619 142.484 10.256C147.069 14.5787 149.602 20.5542 149.515 26.784C149.602 32.9714 147.069 38.9469 142.484 43.2696C138.03 47.7618 131.873 50.2198 125.454 50.135ZM125.454 11.146C121.175 11.0612 117.07 12.7564 114.057 15.723C110.957 18.6048 109.254 22.6308 109.298 26.784C109.254 30.9372 110.957 34.9632 114.057 37.845C120.302 43.9476 130.476 43.99 136.764 37.9298C136.808 37.8874 136.851 37.845 136.851 37.845C139.908 34.9632 141.611 30.9372 141.567 26.784C141.655 22.6308 139.952 18.6048 136.895 15.723C133.926 12.7564 129.777 11.1036 125.454 11.146ZM180.518 50.135C174.143 50.2198 167.986 47.7618 163.532 43.2696C158.947 38.9469 156.37 33.0138 156.458 26.784C156.37 20.5542 158.903 14.5787 163.532 10.256C172.92 1.14446 188.116 1.14446 197.504 10.256C202.089 14.5787 204.622 20.5542 204.535 26.784C204.622 32.9714 202.089 38.9469 197.504 43.2696C193.05 47.7618 186.893 50.2198 180.518 50.135ZM180.518 11.146C176.195 11.0612 172.047 12.714 169.077 15.723C165.977 18.6048 164.274 22.6308 164.318 26.784C164.274 30.9372 165.977 34.9632 169.077 37.845C175.322 43.9476 185.496 43.99 191.784 37.9298C191.828 37.8874 191.871 37.845 191.871 37.845C194.928 34.9632 196.631 30.9372 196.587 26.784C196.631 22.6308 194.928 18.6048 191.871 15.723C188.858 12.7564 184.754 11.1036 180.518 11.146ZM259.031 3.56009C259.904 3.77199 260.647 4.28053 261.171 4.9586C261.695 5.59429 262 6.44189 262 7.2471V46.3209C262 47.338 261.607 48.3127 260.865 49.0332C259.337 50.5164 256.804 50.5588 255.276 49.0332C254.533 48.3127 254.096 47.338 254.14 46.3209V21.0204L241.651 41.0235L241.52 41.2354V41.3625L241.346 41.532L240.953 41.7863L240.822 41.9134L240.647 42.0829L240.429 42.2101L240.21 42.3372H240.036C239.512 42.5491 238.988 42.6339 238.42 42.6339H238.289C237.983 42.5915 237.678 42.5491 237.416 42.4644H236.935L236.673 42.3372L236.455 42.1677L235.582 41.9134L235.451 41.7863L235.32 41.6591L235.145 41.4896C235.145 41.4473 235.145 41.4049 235.145 41.3625L234.97 41.1506L222.351 21.0204V46.3209C222.351 47.338 221.958 48.3127 221.172 49.0332C220.473 49.7536 219.469 50.135 218.464 50.135C216.281 50.0926 214.578 48.3975 214.534 46.3209V7.28947C214.534 6.44188 214.796 5.63668 215.364 5.00098C215.888 4.32291 216.63 3.81437 217.504 3.60247C218.333 3.39057 219.207 3.43295 219.993 3.7296C220.822 4.02626 221.477 4.61958 221.958 5.34003L238.42 31.7424L254.882 5.34003C255.275 4.61958 255.887 4.06864 256.629 3.7296L257.852 3.26343L259.031 3.56009Z" fill="white"/>
</svg>
