<svg width="181" height="66" viewBox="0 0 181 66" fill="none" xmlns="http://www.w3.org/2000/svg">
<path d="M54.481 52.6957L42.716 32.8515L54.481 13.0073L60.1526 32.8515L54.481 52.6957ZM28.2966 50.7593L13.5144 36.0578H37.0444L48.8094 55.902L28.2966 50.7593ZM28.2966 14.883L48.7496 9.74028L36.9846 29.5845H13.4546L28.2966 14.883ZM58.3426 0L31.6144 6.95772L27.6325 13.794L19.6086 13.7333L0 32.8515L19.6086 51.9697L27.6325 51.909L31.6144 58.7453L58.3426 65.7637L65.522 39.6878L61.4794 32.9122L65.522 26.136L58.3426 0ZM119.037 19.2997C115.478 19.2997 113.064 20.8118 111.254 23.595H111.134V20.0257H104.86V46.2825H111.254V31.3995C111.254 27.8302 113.487 25.3493 116.564 25.3493C119.46 25.3493 121.632 27.1042 121.632 30.1897V46.3432H128.028V29.1608C128.087 23.4135 124.467 19.2997 119.037 19.2997ZM95.1454 35.211C95.1454 38.7202 93.1544 41.1398 89.8964 41.1398C86.9406 41.1398 85.07 39.4462 85.07 36.3607V20.0257H78.6744V37.5705C78.6744 43.3178 81.9324 47.0692 87.785 47.0692C91.4656 47.0692 93.5165 45.6773 95.2666 43.2577H95.4476V46.3432H101.602V20.0257H95.206V35.211H95.1454ZM131.467 20.0257H137.861V46.2825H131.467V20.0257ZM131.467 11.8582H137.861V17.1217H131.467V11.8582ZM174.122 20.0257L170.321 31.8833C169.477 34.3035 168.812 37.6312 168.812 37.6312H168.631C168.631 37.6312 167.787 34.3035 166.943 31.8833L162.658 20.0257H155.78L162.839 38.7202C164.348 42.7132 164.83 44.4068 164.83 45.8588C164.83 48.0368 163.685 49.4287 160.97 49.4287H158.495V54.9338H162.599C167.907 54.9338 169.778 52.8165 171.769 47.0085L181 20.0858H174.122V20.0257ZM149.807 38.5988V24.684H153.911V20.0858H149.807V11.8582H143.413V20.0257H139.793V24.6233H143.413V40.0508C143.413 45.012 147.153 46.3432 150.531 46.3432C153.307 46.3432 154.031 46.2218 154.031 46.2218V41.1398H152.402C150.893 41.2005 149.807 40.5352 149.807 38.5988Z" fill="white"/>
</svg>
