<svg width="216" height="54" viewBox="0 0 216 54" fill="none" xmlns="http://www.w3.org/2000/svg">
<path d="M173.637 20.2217V0.20925H178.867V7.79355H179.244L184.023 0.20925H190.007L184.432 9.03825L190.844 19.4157V20.2217H185.143L180.834 12.5536H178.794V20.1893L173.637 20.2217ZM10.0211 8.1702L12.3215 13.4001H10.0103L8.2107 17.7201H13.9644L15.1362 20.2217H20.0934V19.4792L11.1294 0.10395H8.9424L0 19.4805V20.223H4.968L10.0211 8.17155V8.1702ZM43.2405 0.20925H45.0603V20.2217H39.8304V11.3292L35.563 15.7748H34.9879L30.8029 11.3292V20.2217H25.5731V0.20925H27.4563L35.2701 8.87085L43.2405 0.20925ZM65.124 4.833H57.7395V7.6572H64.5165V12.1878H57.7395V15.6911H65.3751V20.2217H52.6662V0.2619H65.124V4.833ZM79.9659 20.2217H72.445V0.2619H79.9646C92.9678 0.324 92.9678 20.1582 79.9646 20.2217H79.9659ZM77.5386 15.5777H79.9659C86.3244 15.5777 86.3244 4.9167 79.9659 4.9167H77.5386V15.5763V15.5777ZM105.802 15.6911V20.169H95.688V15.6911H98.2192V4.71825H95.8878V0.2619H105.647V4.7169H103.261V15.6924H105.804L105.802 15.6911ZM125.08 17.7106H117.214L116.053 20.2217H111.064V19.4792L120.039 0H122.236L131.232 19.467V20.2095H126.243L125.082 17.7106H125.08ZM121.115 8.10675L118.868 13.338H123.429L121.117 8.10675H121.115ZM133.232 4.833V0.2619H148.053V4.833H143.18V20.2217H138.137V4.833H133.232ZM166.923 4.833H159.548V7.6572H166.316V12.1878H159.539V15.6911H167.173V20.2217H154.464V0.2619H166.911L166.923 4.833ZM211.001 20.2217H216V19.4792L207.014 0H204.818L195.812 19.4792V20.2217H200.834L202.015 17.7106H207.789L205.98 13.3583H203.658L205.968 8.12835L211 20.2217H211.001ZM175.937 34.992C175.935 34.7598 176.002 34.5322 176.13 34.3381C176.257 34.1439 176.439 33.9921 176.653 33.9017C176.867 33.8114 177.103 33.7866 177.331 33.8306C177.559 33.8746 177.769 33.9853 177.934 34.1488C178.099 34.3122 178.212 34.521 178.258 34.7486C178.304 34.9762 178.281 35.2123 178.193 35.4271C178.104 35.6418 177.954 35.8255 177.761 35.9547C177.568 36.084 177.341 36.153 177.109 36.153C176.956 36.1544 176.804 36.1255 176.662 36.0677C176.519 36.01 176.39 35.9247 176.281 35.8168C176.172 35.7088 176.086 35.5804 176.027 35.4388C175.968 35.2972 175.937 35.1454 175.937 34.992ZM177.109 35.964C177.3 35.9683 177.488 35.9157 177.649 35.813C177.81 35.7103 177.936 35.5621 178.013 35.3871C178.089 35.2122 178.112 35.0186 178.078 34.8307C178.044 34.6429 177.955 34.4693 177.822 34.3322C177.69 34.1951 177.519 34.1005 177.332 34.0605C177.146 34.0205 176.951 34.0369 176.774 34.1076C176.597 34.1784 176.445 34.3002 176.337 34.4577C176.229 34.6151 176.17 34.8011 176.168 34.992C176.164 35.1177 176.185 35.243 176.231 35.3602C176.276 35.4775 176.345 35.5843 176.433 35.6743C176.521 35.7642 176.626 35.8354 176.742 35.8836C176.859 35.9318 176.983 35.9559 177.109 35.9546V35.9654V35.964ZM176.869 35.6724H176.67V34.3224H177.183C177.497 34.3224 177.653 34.4372 177.653 34.7004C177.656 34.7474 177.649 34.7943 177.633 34.8385C177.616 34.8826 177.591 34.923 177.559 34.9571C177.527 34.9912 177.488 35.0184 177.444 35.0369C177.401 35.0554 177.355 35.065 177.308 35.0649L177.686 35.6508H177.455L177.1 35.0757H176.869V35.6724ZM177.109 34.9191C177.277 34.9191 177.433 34.9191 177.433 34.6991C177.433 34.479 177.287 34.5006 177.14 34.5006H176.869V34.9191H177.109ZM143.366 53.9055H137.947V46.1646H134.433V53.9055H128.847V33.9458H134.433V41.3735H137.947V33.9458H143.366V53.9055ZM168.198 54C170.897 53.9751 173.476 52.8848 175.375 50.9666C177.273 49.0484 178.337 46.4577 178.334 43.7589C178.334 41.4608 177.553 39.2309 176.12 37.4347C174.686 35.6385 172.685 34.3827 170.444 33.8732C168.203 33.3636 165.856 33.6306 163.787 34.6304C161.717 35.6301 160.049 37.3032 159.056 39.3755C158.975 37.9849 158.395 36.6702 157.423 35.6727C156.451 34.6753 155.152 34.0621 153.764 33.9458H144.516V53.896H153.135C154.65 53.8866 156.106 53.3044 157.21 52.2663C158.314 51.2282 158.985 49.811 159.088 48.299C159.922 50.0051 161.218 51.4435 162.828 52.4511C164.437 53.4588 166.297 53.9953 168.197 54H168.198ZM152.392 45.8825C152.793 45.9459 153.158 46.1503 153.422 46.4591C153.686 46.7678 153.831 47.1605 153.831 47.5666C153.831 47.9726 153.686 48.3653 153.422 48.6741C153.158 48.9828 152.793 49.1873 152.392 49.2507H149.652V45.8825H152.392ZM152.392 38.3927C152.793 38.4561 153.158 38.6605 153.422 38.9693C153.686 39.278 153.831 39.6707 153.831 40.0768C153.831 40.4828 153.686 40.8755 153.422 41.1843C153.158 41.493 152.793 41.6975 152.392 41.7609H149.652V38.3927H152.392ZM156.042 43.7697C156.847 43.5638 157.575 43.1275 158.135 42.5142C157.994 43.4359 157.994 44.3735 158.135 45.2952C157.639 44.5611 156.903 44.022 156.053 43.7697H156.042ZM163.114 43.7697C163.114 42.7663 163.411 41.7854 163.969 40.9511C164.526 40.1168 165.319 39.4666 166.246 39.0826C167.173 38.6986 168.193 38.5981 169.177 38.7939C170.161 38.9896 171.065 39.4728 171.774 40.1823C172.484 40.8919 172.967 41.7958 173.163 42.7799C173.359 43.7641 173.258 44.7841 172.874 45.7112C172.49 46.6382 171.84 47.4305 171.006 47.988C170.171 48.5455 169.19 48.843 168.187 48.843C166.843 48.8401 165.556 48.3044 164.607 47.3533C163.658 46.4021 163.125 45.1134 163.125 43.7697H163.114ZM168.187 47.7657C168.979 47.7719 169.754 47.5427 170.415 47.1074C171.077 46.6721 171.594 46.0502 171.901 45.3205C172.208 44.5909 172.292 43.7865 172.141 43.0093C171.99 42.2321 171.612 41.5172 171.055 40.9553C170.497 40.3933 169.785 40.0096 169.009 39.8529C168.233 39.6962 167.428 39.7735 166.696 40.075C165.964 40.3765 165.338 40.8887 164.898 41.5464C164.457 42.2042 164.222 42.9781 164.222 43.7697C164.225 44.8241 164.644 45.8347 165.389 46.5812C166.134 47.3277 167.143 47.7496 168.198 47.7549L168.187 47.7657ZM46.7883 44.3745H39.0056V50.2119H37.7609V37.5327H39.0056V43.119H46.7883V37.5327H48.033V50.2119H46.7883V44.3745ZM57.3629 37.3545C58.2203 37.3422 59.0711 37.5058 59.8628 37.8351C60.6546 38.1644 61.3705 38.6525 61.9663 39.2691C62.5621 39.8858 63.0252 40.6181 63.3271 41.4207C63.6289 42.2233 63.7631 43.0793 63.7214 43.9357C63.7388 44.7818 63.5872 45.6228 63.2755 46.4095C62.9638 47.1962 62.4982 47.9128 61.906 48.5173C61.3139 49.1218 60.607 49.6021 59.8269 49.9299C59.0468 50.2578 58.2091 50.4266 57.3629 50.4266C56.5166 50.4266 55.6789 50.2578 54.8988 49.9299C54.1187 49.6021 53.4118 49.1218 52.8197 48.5173C52.2275 47.9128 51.7619 47.1962 51.4502 46.4095C51.1385 45.6228 50.9869 44.7818 51.0043 43.9357C50.9628 43.0793 51.0971 42.2234 51.399 41.4209C51.701 40.6184 52.1641 39.8862 52.7599 39.2696C53.3556 38.6529 54.0714 38.1649 54.8631 37.8355C55.6547 37.5061 56.5055 37.3424 57.3629 37.3545ZM57.3629 49.1549C58.044 49.1641 58.7199 49.0338 59.3488 48.7719C59.9777 48.5101 60.5463 48.1222 61.0196 47.6322C61.4928 47.1422 61.8608 46.5605 62.1007 45.9229C62.3406 45.2854 62.4474 44.6054 62.4146 43.9249C62.3798 42.9338 62.0542 41.9747 61.4782 41.1673C60.9023 40.3599 60.1014 39.7398 59.1755 39.3844C58.2496 39.029 57.2395 38.9539 56.2713 39.1685C55.303 39.383 54.4192 39.8779 53.7302 40.5912C53.0411 41.3046 52.5772 42.2049 52.3963 43.1801C52.2154 44.1552 52.3255 45.1621 52.7128 46.0751C53.1001 46.9881 53.7475 47.767 54.5744 48.3147C55.4013 48.8623 56.3711 49.1545 57.3629 49.1549ZM66.7048 37.5327H67.9901L73.0215 44.2071L77.8437 37.5327H79.0358V50.2119H77.7708V39.5307L72.9905 46.0269H72.8123L67.9388 39.5739V50.2119H66.7035V37.5327H66.7048ZM83.021 37.5327H90.3433V38.7882H84.2765V43.1716H89.7993V44.4272H84.267V48.9767H90.5445V50.2119H83.0223V37.5327H83.021ZM104.495 37.3545C105.355 37.3391 106.208 37.5003 107.003 37.8282C107.797 38.1561 108.516 38.6436 109.114 39.2607C109.712 39.8777 110.177 40.611 110.481 41.4152C110.784 42.2194 110.919 43.0773 110.877 43.9357C110.877 44.7709 110.712 45.5979 110.393 46.3696C110.073 47.1412 109.605 47.8423 109.014 48.4328C108.424 49.0234 107.722 49.4919 106.951 49.8115C106.179 50.1311 105.352 50.2956 104.517 50.2956C103.682 50.2956 102.855 50.1311 102.083 49.8115C101.312 49.4919 100.61 49.0234 100.02 48.4328C99.4293 47.8423 98.9609 47.1412 98.6413 46.3696C98.3217 45.5979 98.1572 44.7709 98.1572 43.9357C98.1157 43.081 98.2494 42.2269 98.5501 41.4257C98.8508 40.6246 99.3121 39.8934 99.9057 39.277C100.499 38.6607 101.213 38.1722 102.002 37.8416C102.791 37.511 103.64 37.3452 104.495 37.3545ZM104.495 49.1656C105.177 49.1751 105.853 49.0449 106.482 48.7831C107.111 48.5214 107.68 48.1335 108.153 47.6435C108.626 47.1535 108.994 46.5717 109.234 45.9341C109.474 45.2964 109.581 44.6163 109.548 43.9357C109.514 42.9446 109.188 41.9856 108.612 41.1782C108.036 40.3709 107.236 39.7508 106.31 39.3953C105.384 39.0398 104.374 38.9647 103.406 39.1791C102.437 39.3936 101.554 39.8883 100.865 40.6015C100.175 41.3147 99.7114 42.215 99.5304 43.19C99.3493 44.1651 99.4592 45.1719 99.8463 46.085C100.233 46.998 100.881 47.777 101.707 48.3248C102.534 48.8726 103.504 49.165 104.495 49.1656ZM113.827 37.5327H121.148V38.7882H115.061V43.5483H120.614V44.8038H115.061V50.2119H113.827V37.5327Z" fill="white"/>
</svg>
