<svg width="174" height="56" viewBox="0 0 174 56" fill="none" xmlns="http://www.w3.org/2000/svg">
<path d="M55.9006 53.4372L38.5635 1.33598C38.2891 0.510998 37.515 -0.00805744 36.6872 0.000519835C36.6849 0.000519835 36.6825 0 36.6804 0H36.6739C36.6726 0 36.6713 0 36.67 0H19.2951C18.4521 0 17.7036 0.538289 17.4384 1.33572L0.0994111 53.437C-0.0982833 54.0314 0.00238959 54.684 0.370132 55.1917C0.737875 55.6993 1.32783 56 1.95612 56H19.3438C20.1868 56 20.9353 55.4617 21.2005 54.664L27.9999 34.2293L34.7997 54.664C35.0652 55.4614 35.8135 56 36.6564 56H54.0436C54.6719 56 55.2619 55.6993 55.6296 55.1917C55.9976 54.684 56.0983 54.0314 55.9006 53.4372ZM17.9315 52.1012H4.66568L20.7071 3.89876H33.9706L17.9315 52.1012ZM38.0687 52.1012L30.0611 28.0357L36.6935 8.10293L51.3346 52.101H38.0687V52.1012Z" fill="white"/>
<path d="M144.68 35.9445C146.94 35.2988 148.265 33.3969 148.265 30.7975C148.265 29.2034 147.822 27.9496 146.927 27.0127C144.318 24.2813 139.886 25.4617 138.781 29.1823C138.328 30.7068 138.329 30.8232 138.802 32.4871C139.225 33.9767 140.562 35.5199 141.623 35.7442C141.938 35.8108 142.402 35.9521 142.654 36.0582C143.291 36.3268 143.353 36.3234 144.68 35.9445H144.68ZM140.58 47.9742C138.205 47.2148 136.058 45.425 134.933 43.2664C134.61 42.6471 134.773 42.519 136.899 41.7197C138.396 41.1568 138.875 41.0944 138.875 41.4621C138.875 41.9959 140.299 43.4298 141.276 43.8793C143.23 44.7784 145.799 44.2392 147.019 42.6741C147.581 41.952 148.083 40.0317 147.991 38.9487L147.942 38.3733L147.016 39.0056C145.698 39.905 143.518 40.3007 141.738 39.9638C139.607 39.5607 138.258 38.8661 136.829 37.4367C135.321 35.9272 134.671 34.7043 134.198 32.4829C133.25 28.0333 136.135 23.2723 140.636 21.8577C142.922 21.139 146.129 21.6018 147.481 22.8457L148.001 23.3239L148.076 22.6843L148.151 22.0448H150.212H152.273L152.34 31.0129C152.41 40.4351 152.306 41.7232 151.307 43.7271C150.318 45.7114 148.401 47.274 146.046 48.0148C144.559 48.4825 142.112 48.4643 140.58 47.9742Z" fill="white"/>
<path d="M105.496 35.231C107.269 34.0283 108.135 31.414 107.509 29.1505C106.988 27.2641 104.771 25.5199 102.894 25.5199C99.8666 25.5199 97.6645 27.7074 97.6527 30.7262C97.6432 33.1327 99.165 35.3521 101.171 35.8579C102.473 36.1859 104.528 35.888 105.496 35.231ZM100.904 39.9557C97.2765 39.3228 94.6451 37.0054 93.4055 33.3521C92.8329 31.6646 93.0237 28.7418 93.8145 27.0864C95.5169 23.5229 98.7548 21.4773 102.674 21.4898C110.14 21.5136 114.557 28.9361 111.049 35.5644C110.046 37.4599 107.181 39.4811 104.921 39.888C102.899 40.252 102.629 40.2566 100.904 39.9557Z" fill="white"/>
<path d="M165.666 29.9318C166.512 29.5635 166.2 29.6635 166.348 29.6596C166.497 29.6557 167.45 29.2537 168.267 28.8838C169.083 28.5138 169.915 28.2112 170.115 28.2112C170.315 28.2112 169.137 28.7077 169.137 28.6099C169.137 28.5121 171.046 27.6668 171.74 27.436C172.965 27.0281 172.989 27.0042 172.599 26.5819C171.445 25.3339 169.113 25.0852 167.561 26.0445C166.302 26.8222 165.298 28.1428 165.105 29.2761C164.931 30.2929 164.847 30.2885 165.666 29.9318ZM168.074 39.9527C164.453 39.1209 162.079 36.8824 160.877 33.1662C160.551 32.1589 160.562 29.2344 160.895 28.2271C162.3 23.9826 165.491 21.4851 169.51 21.4851C171.805 21.4851 173.701 22.248 175.347 23.8342C176.525 24.9683 178.037 27.4475 178.037 28.2435C178.037 28.7583 177.762 28.9138 174.945 29.997C172.679 30.8681 171.585 31.3069 169.791 32.0648C169.477 32.1979 169.013 32.3887 168.761 32.4888C168.509 32.5888 167.839 32.865 167.272 33.1024C166.705 33.3398 166.097 33.5773 165.921 33.6303C165.37 33.7956 167.264 35.5272 168.303 35.808C170.344 36.3599 172.14 35.9803 173.563 34.696C174.099 34.2121 174.643 33.8162 174.772 33.8162C175.16 33.8162 178.028 35.7038 178.033 35.9621C178.041 36.4392 176.03 38.2376 174.701 38.9423C173.482 39.5885 170.688 40.3574 169.791 40.2931C169.603 40.2795 168.83 40.1264 168.074 39.9527H168.074Z" fill="white"/>
<path d="M75.5481 39.8592C72.7528 39.4219 70.0547 37.9734 67.6949 35.6434C66.0386 34.0079 64.9496 32.2797 64.0369 29.838C63.4567 28.2856 63.4701 23.1682 64.0585 21.5976C65.919 16.6321 69.4803 13.3003 74.5175 11.8129C76.1181 11.3402 81.2074 11.4065 82.6481 11.9188C84.8324 12.6954 87.5065 14.2078 88.2536 15.089C88.5273 15.4118 88.3878 15.6315 87.1019 16.9015C86.2972 17.6963 85.5842 18.3466 85.5176 18.3464C85.451 18.3463 85.0968 18.0938 84.7304 17.7854C82.8329 16.1879 79.1843 15.343 76.4204 15.8611C73.273 16.451 70.6625 18.4022 69.196 21.2608C68.4621 22.6916 67.9855 22.7748 67.9855 25.7453C67.9855 28.5676 68.4901 28.8597 69.0685 30.0682C69.4097 30.781 70.2763 31.9671 70.9943 32.704C73.6143 35.3928 77.4438 36.4506 81.1073 35.4974C83.1626 34.9626 84.0431 34.5025 85.3259 33.2929C86.4478 32.2351 87.1788 30.9244 87.4383 29.5054L87.5912 28.6693L82.9439 28.6086L78.2965 28.5479V26.4543V24.3608L84.9384 24.3794C88.5915 24.3897 91.6434 24.3985 91.7205 24.3991C91.7975 24.3998 91.9715 24.9406 92.107 25.6012C92.6172 28.0881 91.681 31.8548 89.8843 34.5437C88.4046 36.7584 86.8206 37.9537 83.4497 39.3994C82.0516 39.9991 77.9629 40.237 75.5481 39.8592V39.8592Z" fill="white"/>
<path d="M124.746 35.7988C125.812 35.5375 127.242 34.2235 127.766 33.0236C127.976 32.5429 128.314 31.6177 128.264 30.6933C128.192 29.3734 127.906 28.4351 127.623 28.1003C126.43 26.6855 125.805 26.1669 124.93 25.8646C122.97 25.1874 121.145 25.5579 119.67 26.9325C116.786 29.6202 117.892 34.6101 121.649 35.8553C122.725 36.2122 123.087 36.2056 124.746 35.7988ZM120.795 39.8632C118.363 39.3609 115.822 37.4673 114.67 35.2981C112.75 31.6838 113.238 27.4926 115.916 24.5907C119.737 20.4506 126.473 20.4525 130.365 24.5947C133.714 28.1584 133.366 34.6275 129.66 37.7335C127.893 39.2141 126.173 39.8809 123.857 39.9833C122.733 40.033 121.355 39.9789 120.795 39.8632V39.8632Z" fill="white"/>
<path d="M154.676 25.9677V12.2751L156.909 12.3393L159.142 12.4035V25.9677V39.5319L156.909 39.5961L154.676 39.6603V25.9677Z" fill="white"/>
</svg>
