<svg width="225" height="68" viewBox="0 0 225 68" fill="none" xmlns="http://www.w3.org/2000/svg">
<path d="M218.722 11.558L204.126 0L176.135 5.17816L169.667 0L148.284 2.76494L144.805 0L98.0595 3.2046L94.0407 0L69.2884 11.9782L59.5015 4.09368C59.6314 4.20115 27.6314 11.2552 27.6314 11.2552L0 56.4517L14.5955 68C21.4467 66.9579 28.3012 66.0069 35.1591 65.1471C36.1388 62.1966 37.1384 59.246 38.1581 56.2954L47.4652 63.6523C53.7033 62.9489 59.9513 62.2975 66.2094 61.6983L64.5899 57.3603L69.6783 61.3759C76.5362 60.7245 83.4007 60.1741 90.2719 59.7247L91.4715 56.5397L95.1004 59.4023C110.276 58.4644 125.448 57.8879 140.616 57.673C140.996 56.696 141.386 55.719 141.766 54.8103L145.295 57.6437C147.194 57.6437 160.89 57.6437 165.848 57.7609C166.848 55.1718 167.918 52.5828 168.957 50.0034L179.194 58.1029C186.032 58.3374 192.867 58.663 199.698 59.0799C197.858 51.3876 195.986 43.7441 194.08 36.1494C202.057 28.3333 210.794 19.6086 218.722 11.558Z" fill="black"/>
<path d="M45.7258 0H4.25868C8.13747 3.05805 15.7751 8.99828 15.7451 9.07644C15.3752 10.1609 1.2696 52.5046 0 56.4517C6.84454 55.4226 13.6991 54.4749 20.5636 53.6086C22.6363 47.3948 24.729 41.1778 26.8416 34.9575C28.841 40.6762 30.8404 46.395 32.8398 52.1138C39.0778 51.3973 45.3259 50.746 51.5839 50.1598C49.4546 44.4833 45.3059 33.1402 45.3059 33.1402C63.4902 30.6782 74.2769 0 45.7258 0ZM38.8679 21.592C34.3193 21.8264 31.8701 21.9925 31.3203 22.0121C32.4332 18.801 33.5629 15.5768 34.7092 12.3397C36.7086 12.281 38.708 12.2126 40.7073 12.2126C46.3856 12.2126 45.8857 21.2598 38.8679 21.6115V21.592Z" fill="white"/>
<path d="M73.8169 0V0.0781609C72.3474 3.81034 56.5623 45.6753 55.0527 49.8276C61.9106 49.1762 68.7751 48.6226 75.6463 48.1667C77.1459 44.1609 89.3421 12.0759 94.0406 0C87.3127 0 80.5548 0 73.8169 0Z" fill="white"/>
<path d="M144.805 0H99.3187C98.8989 1.07471 95.9698 8.5977 94.8701 11.2747C101.261 11.2161 107.649 11.1738 114.034 11.1477C111.565 13.2092 87.3025 34.127 84.9732 36.2667C83.447 40.0966 81.9475 43.9655 80.4746 47.8736C95.6499 46.9356 110.822 46.3559 125.99 46.1345C127.463 42.4805 128.936 38.8264 130.409 35.1724C124.011 35.2115 117.616 35.2962 111.225 35.4264C115.994 31.3425 137.757 13.1994 140.216 11.1966L144.805 0Z" fill="white"/>
<path d="M204.126 0H181.513C179.814 1.66092 165.268 15.8569 162.129 18.9052C164.579 12.7598 167.218 6.20402 169.667 0C162.949 0 156.131 0.0586207 149.403 0C149.034 0.908621 136.477 31.7626 130.699 46.0466C132.599 46.0466 148.774 46.1149 151.253 46.154C152.692 42.5782 158.441 28.2063 159.88 24.6598C161.446 31.9352 163.022 39.2303 164.609 46.5448C171.44 46.7793 178.271 47.105 185.102 47.5218C183.23 39.8686 181.357 32.2381 179.484 24.6305C181.483 22.6178 198.178 6.0477 204.126 0Z" fill="white"/>
<path d="M215.033 1.1431H216.203V4.76781H217.592V1.1431H218.762V0.00976562H215.033V1.1431Z" fill="black"/>
<path d="M224.639 0.00976562H223.02L222.19 2.60862L221.34 0.00976562H219.741L219.371 4.76781H220.741L220.871 2.36436L221.65 4.76781H222.72L223.49 2.3839L223.63 4.76781H224.999L224.639 0.00976562Z" fill="black"/>
</svg>
