<svg width="200" height="79" viewBox="0 0 200 79" fill="none" xmlns="http://www.w3.org/2000/svg">
<path d="M104.278 22.515C104.278 18.17 107.096 17.2812 111.223 17.1825V8.59125C106.19 8.59125 104.58 11.2575 103.875 12.64H103.775V9.57875H95.5209V35.945H104.278V22.515ZM188.626 38.9075C186.412 37.3275 183.795 36.4387 181.077 36.4387C175.843 36.4387 174.031 39.105 173.125 40.4875H173.025V37.4262H164.872V45.5237C162.456 39.9937 156.92 36.34 150.78 36.4387C144.64 36.4387 139.104 40.0925 136.688 45.6225C135.116 41.9516 132.127 39.04 128.375 37.5229C124.622 36.0059 120.41 36.0066 116.658 37.525C114.6 38.3915 112.749 39.6695 111.223 41.2775V36.34C106.895 36.34 105.184 38.2162 104.278 39.5987V37.2287H95.5209V66.0638H104.278V50.2637C104.278 46.9062 105.888 45.6225 108.505 45.2275C107.385 47.5444 106.88 50.1016 107.038 52.6613C107.195 55.221 108.01 57.7 109.406 59.8679C110.802 62.0358 112.734 63.8221 115.023 65.0608C117.312 66.2994 119.882 66.9502 122.496 66.9525C125.516 66.9525 128.435 66.0637 130.851 64.385C133.266 62.7062 135.179 60.435 136.487 57.7687C139.004 63.2987 144.539 66.9525 150.78 66.9525C153.8 66.9525 156.719 66.0637 159.134 64.385C161.55 62.7062 163.462 60.435 164.771 57.7687V66.0638H173.528V50.56C173.528 48.7825 173.528 44.5363 178.561 44.5363C183.191 44.5363 183.191 48.4863 183.191 50.4613V66.2612H191.948V48.19C192.048 42.5612 190.237 40.29 188.626 38.9075ZM122.798 43.7463C125.918 43.5488 128.737 45.7212 129.441 48.6838H116.155C116.468 47.2123 117.312 45.9016 118.534 44.9939C119.755 44.0863 121.27 43.6431 122.798 43.7463ZM127.932 57.1763C127.355 58.0373 126.56 58.736 125.625 59.2036C124.689 59.6711 123.646 59.8914 122.597 59.8425C119.175 59.8425 116.256 57.8675 115.752 54.4112H135.581C135.783 55.3987 135.984 56.2875 136.286 57.1763H127.932ZM150.78 43.6475C153.9 43.45 156.719 45.5237 157.423 48.585H144.137C144.841 45.6225 147.66 43.5487 150.78 43.6475ZM164.872 57.1763H156.215C155.639 58.0373 154.844 58.736 153.909 59.2036C152.973 59.6711 151.929 59.8914 150.881 59.8425C147.458 59.8425 144.54 57.8675 144.036 54.4112H164.872V57.1763ZM198.591 35.55L197.786 38.1175H197.685L196.88 35.55H195.471V39.5987H196.578L196.477 36.8337H196.578L197.383 39.5987H198.188L198.893 36.8337H198.993L198.893 39.5987H200V35.55H198.591ZM75.1887 12.0475C74.6854 12.5413 74.2828 13.1338 73.8802 13.7263C73.1297 12.1586 71.931 10.8387 70.4299 9.92704C68.9289 9.0154 67.1902 8.55132 65.4253 8.59125C59.8893 8.59125 58.0775 11.455 57.3729 12.64H57.2723V9.57875H49.0186V23.9963L48.7167 23.4037C47.3075 21.725 46.0996 19.9475 44.1872 18.7625C43.7846 18.4663 43.4826 18.0712 43.1807 17.6762C42.778 17.1825 42.4761 16.6887 42.0735 16.2938C41.3689 15.7013 40.9663 14.9113 40.6643 14.0225C40.6643 13.7263 40.463 13.43 40.161 13.3313C39.4565 13.035 38.7519 12.8375 38.0473 12.8375C36.8395 12.7388 35.8329 12.1462 35.1283 11.1588L35.6316 9.57875L37.0408 9.18375C38.0473 9.085 38.7519 8.19625 38.6512 7.20875C38.6512 7.01125 38.5506 6.715 38.4499 6.5175L37.544 5.03625C37.7453 2.37 35.7323 0.1975 33.0146 0H32.4107C32.008 0 31.6054 0 31.3035 0.09875C30.2969 0.29625 29.4917 0.9875 29.0891 1.87625C28.1832 2.07375 27.2773 1.87625 26.6734 2.66625C26.4721 2.86375 26.4721 3.16 26.6734 3.3575L27.8812 4.9375C27.6799 6.41875 27.8812 7.9 28.5858 9.18375C27.7806 10.665 26.3714 11.7513 24.7609 12.3438C23.5531 12.7388 22.3452 13.2325 21.0367 13.7263C20.8354 13.825 20.7348 13.9238 20.7348 14.0225C20.3322 14.8125 19.9295 15.7013 19.6276 16.59C19.3256 17.4788 19.1243 18.3675 18.923 19.1575C18.7217 20.2437 18.5204 21.33 18.1178 22.4163C17.3125 23.8975 16.9099 25.4775 16.1047 26.86C14.6955 29.3288 13.9909 31.995 12.8837 34.5625C12.3805 35.55 12.0785 36.5375 11.7765 37.525C11.6759 38.2163 11.2733 38.8088 10.5687 39.105C9.3575 39.6991 8.42193 40.7229 7.95168 41.9688C7.44841 42.7588 7.34776 43.7463 7.75038 44.5363C7.85103 44.635 7.85103 44.7338 7.85103 44.9313C7.75038 45.425 7.64972 45.9187 7.44841 46.3137L6.94514 47.795C6.64318 48.585 6.44187 49.2762 6.13991 50.165C5.83795 51.0537 5.23402 51.745 4.42879 52.14C4.32813 52.2388 4.12682 52.4362 4.12682 52.7325V53.4238C4.22748 54.115 4.32813 54.905 4.32813 55.695C4.22748 56.485 4.12682 57.3737 3.82486 58.1637C3.01963 61.0275 2.21439 63.7925 1.50981 66.5575C1.00654 69.0263 0.603925 71.495 0.503271 73.9638C0.402617 74.7537 0.301963 75.5437 0 76.235H0.201308L0.402617 76.1363L1.00654 74.3587C1.30851 73.5687 1.81178 72.8775 2.71766 70.705C3.92552 67.94 4.8314 65.0762 5.43533 62.2125C5.73729 60.9287 6.03925 59.5463 6.24056 58.2625C6.24056 57.5713 6.64318 56.9787 7.14645 56.6825C7.95169 56.09 8.65627 55.3987 9.15954 54.51C9.36085 54.2137 9.36085 53.8187 9.15954 53.5225L8.3543 52.535C8.15299 52.2388 8.15299 52.14 8.15299 51.9425L8.45496 48.0913C8.55561 46.5112 8.85757 45.03 9.4615 43.5487L9.56215 43.45C10.468 43.45 11.3739 43.1537 12.2798 43.845C12.2798 43.845 12.3805 43.9437 12.2798 44.0425L11.8772 44.9313C11.7765 45.2275 11.8772 45.5237 12.1792 45.6225C12.2798 45.6225 12.3805 45.7212 12.5818 45.6225C12.7831 45.5237 12.8837 45.425 12.9844 45.2275C13.1857 44.9313 13.387 44.5362 13.387 44.1412C13.4877 43.3512 13.2864 42.5613 12.8837 41.9688V41.6725L14.0916 39.3025C14.1922 39.2038 14.1922 39.105 14.3936 39.0063C14.8968 38.6113 15.2994 38.1175 15.6014 37.6237C16.7086 35.6488 17.9165 33.6738 19.0237 31.6C20.2315 29.7238 21.238 27.65 22.0433 25.5763C22.2446 25.1812 22.3452 24.7863 22.6472 24.49C23.2511 24.7863 23.1505 25.1812 23.2511 25.5763C23.3518 27.3538 23.4524 29.23 23.6537 31.0075C23.7544 31.8962 23.8551 32.785 24.0564 33.8713C24.0564 34.0687 24.0564 34.2662 23.9557 34.4637C23.5531 35.7475 23.3518 37.2288 23.5531 38.6113V39.2037C23.5531 40.1912 23.4524 41.1787 23.1505 42.0675C22.8485 43.2525 22.6472 44.5363 22.5466 45.82C22.4459 48.7825 22.5466 51.745 22.4459 54.7075C22.3452 56.09 23.0498 57.3737 24.157 58.1637C25.9688 59.5462 27.5793 61.1262 29.391 62.6075C29.391 63.1012 29.2904 63.595 29.1897 63.99C28.2838 66.2612 27.9819 68.6312 28.3845 71.0013L28.2838 71.1988C28.3845 71.5938 28.4852 71.9887 28.4852 72.285V73.3712C28.4852 73.47 28.4852 73.6675 28.3845 73.7663V75.1488C28.2838 75.5437 28.4852 75.9388 28.8878 76.1363L29.2904 76.3337C29.5923 76.5312 29.995 76.5312 30.2969 76.3337C30.4982 76.235 30.5989 76.3338 30.6995 76.5313C30.8002 76.7288 30.8002 76.8275 30.8002 77.025C30.8002 77.42 30.9009 77.7163 31.1022 78.0125C31.3035 78.3088 31.7061 78.605 32.008 78.7038C32.2094 78.8025 32.4107 78.8025 32.612 78.9013C32.7126 79 32.8133 79 33.0146 79H34.0211C34.2224 79 34.5244 79 34.7257 78.9013C34.8264 78.9013 34.927 78.8025 35.0277 78.8025L35.229 78.7038C35.3296 78.605 35.4303 78.5062 35.4303 78.4075V78.0125C35.3296 77.42 35.1283 76.8275 34.927 76.235C34.6251 75.7412 34.3231 75.2475 33.9205 74.7537L33.1152 73.6675C33.0146 73.5687 33.0146 73.47 32.9139 73.3712C32.7126 73.075 32.612 72.7787 32.5113 72.4825C32.5113 72.3838 32.4107 72.1863 32.5113 71.9888C32.5113 71.5938 32.612 71.1987 32.8133 70.9025V70.8037L33.7192 67.94L34.8264 68.8287L36.9401 67.8412L38.3493 70.31C38.5506 70.5075 38.6512 70.705 38.7519 70.9025C38.9532 71.1 39.0538 71.2975 39.2552 71.5938C39.4565 71.7913 39.6578 72.0875 39.8591 72.285L39.9597 72.3838V72.4825C40.0604 72.68 40.161 72.8775 40.0604 73.075V73.1738C40.0604 73.3713 40.0604 73.5687 39.9597 73.7663C39.8591 74.26 39.7584 74.7537 39.6578 75.3462V76.4325C39.6578 76.8275 39.8591 77.1237 40.161 77.42C40.2617 77.6175 40.5637 77.6175 40.765 77.5188L40.8656 77.42C40.9663 77.3213 41.1676 77.2225 41.2682 77.025C41.7715 76.4325 42.1741 75.7413 42.4761 75.05C42.8787 74.1613 43.08 73.2725 42.9794 72.3838V68.8287H43.2813C43.5833 68.1375 43.7846 67.4463 43.9859 66.755C44.1872 66.0638 44.4892 65.175 43.6839 64.6813C42.9794 64.4838 42.3754 64.2863 41.6709 64.1875C40.9663 64.1875 40.2617 64.2862 39.5571 64.385C38.0473 63.0025 36.7388 61.4225 35.5309 59.7438C35.8329 57.9663 36.1349 56.2875 36.3362 54.51C36.5375 52.4362 36.8395 50.2637 37.2421 48.19C37.3427 47.795 37.4434 47.2025 37.544 46.8075C37.846 44.635 38.0473 42.4625 38.3493 40.1912C38.3493 40.0925 38.3493 40.0925 38.4499 39.9938L39.2552 39.105C39.3558 39.0062 39.4565 38.8087 39.3558 38.71L38.8525 35.0563L39.4565 34.2662L39.8591 32.4888L40.0604 32.6862C40.6643 32.39 41.3689 31.995 41.8722 31.6987C42.5767 31.3037 43.2813 30.81 43.8853 30.2175C45.4957 29.0325 47.0055 27.7488 48.616 26.465L49.0186 26.07V38.0187H57.7755V23.1075C57.7755 21.4288 57.7755 16.6887 62.7076 16.6887C67.1364 16.6887 67.1364 21.1325 67.1364 22.7125V40.29C63.9154 43.3512 62.1037 47.5975 62.305 52.0412C62.305 61.225 69.1495 67.15 77.1011 67.15C81.7312 67.15 84.2476 64.6813 85.1535 63.0025H85.2541V63.8913C85.2541 71.5938 79.2149 71.6925 78.1077 71.6925C77.5038 71.6925 74.2828 71.6925 72.9743 68.8287H62.8082C63.4122 72.9762 67.237 78.9013 77.4031 78.9013C84.6502 78.9013 89.9849 75.7413 92.2999 72.0875C93.7091 69.6188 94.0111 66.8537 94.0111 62.6075V37.4262H85.2541V40.0925H85.1535C83.543 37.6237 80.3221 36.4387 77.1011 36.4387H75.8933V22.6138C75.8933 21.0338 75.8933 16.6887 80.7247 16.6887C85.2541 16.6887 85.2541 20.7375 85.2541 23.1075V35.945H94.0111V22.6138C94.0111 16.195 93.6084 14.3188 90.7901 11.455C86.462 7.40625 79.4162 7.60375 75.1887 12.0475ZM29.8943 54.905L29.0891 53.9175C28.9884 52.535 29.2904 51.2512 29.8943 50.0662V54.905ZM38.3493 28.835L37.3427 28.1437C37.2421 26.86 37.0408 25.675 37.846 24.5888C38.2486 23.8975 38.6512 23.1075 38.9532 22.3175C39.0538 22.12 39.2551 21.9225 39.4565 21.725C40.8656 22.7125 42.1741 23.8975 43.2813 25.1812C42.1741 26.86 40.3624 28.1438 38.3493 28.835ZM78.007 44.5363H78.1077C82.0332 44.5363 85.2541 47.3013 85.2541 51.9425C85.4554 55.695 82.4358 58.9537 78.611 59.0525H78.1077C74.4841 59.0525 71.0619 56.2875 71.0619 51.6462C70.9612 47.795 74.0815 44.635 78.007 44.5363ZM192.149 36.5375H192.954V39.5987H194.061V36.5375H194.967V35.55H192.149V36.5375Z" fill="white"/>
</svg>
