<svg width="290" height="52" viewBox="0 0 290 52" fill="none" xmlns="http://www.w3.org/2000/svg">
<path d="M250.72 36.9276V23.04H246.035V22.4443L255.967 12.3651H256.525V18.6218H262.037V23.04H256.52V36.3929C256.52 38.6254 257.575 39.6479 259.397 39.6479C260.363 39.6876 261.326 39.528 262.228 39.1789V43.8409C260.965 44.2889 259.633 44.5034 258.296 44.4741C253.309 44.4741 250.725 41.7538 250.725 36.9698" fill="white"/>
<path d="M64.6387 9.32739H76.8807C83.9126 9.32739 88.0723 12.0383 88.0723 18.3372V18.5295C88.0723 21.9674 86.5432 24.683 82.667 25.8931C87.3147 26.9109 89.5084 29.4764 89.5084 34.0775V34.2698C89.5084 40.7141 85.2976 43.9597 77.7916 43.9597H64.6387V9.32739ZM76.1184 23.9092C80.3292 23.9092 81.9559 22.3567 81.9559 18.8203V18.628C81.9559 15.3449 80.0969 13.9378 76.0255 13.9378H70.8526V23.9185L76.1184 23.9092ZM77.048 39.3633C81.3053 39.3633 83.2666 37.4262 83.2666 33.843V33.6507C83.2666 30.0674 81.3053 28.271 76.6158 28.271H70.8526V39.3633H77.048Z" fill="white"/>
<path d="M93.3301 31.5656V31.1764C93.3301 23.3297 98.8329 18.0955 106.195 18.0955C113.557 18.0955 119.013 23.2781 119.013 31.031V31.4202C119.013 39.3185 113.515 44.4496 106.148 44.4496C98.7818 44.4496 93.3301 39.2669 93.3301 31.5656ZM113.083 31.4672V31.1295C113.083 25.8952 110.499 22.6871 106.195 22.6871C101.891 22.6871 99.2605 25.8342 99.2605 31.0685V31.4578C99.2605 36.6404 101.794 39.9001 106.195 39.9001C110.499 39.9001 113.083 36.6545 113.083 31.4578" fill="white"/>
<path d="M122.609 31.5656V31.1764C122.609 23.3297 128.112 18.0955 135.474 18.0955C142.836 18.0955 148.292 23.2781 148.292 31.031V31.4202C148.292 39.3185 142.794 44.4496 135.428 44.4496C128.061 44.4496 122.609 39.2669 122.609 31.5656ZM142.362 31.4672V31.1295C142.362 25.8952 139.778 22.6871 135.474 22.6871C131.17 22.6871 128.54 25.8342 128.54 31.0685V31.4578C128.54 36.6404 131.073 39.9001 135.474 39.9001C139.778 39.9001 142.362 36.6545 142.362 31.4578" fill="white"/>
<path d="M153.504 6.90771H159.29V29.7723L168.237 18.6285H174.549L164.84 30.2554L175.362 43.9648H168.665L159.29 31.5171V43.9648H153.504V6.90771Z" fill="white"/>
<path d="M179.33 18.6301H185.116V22.5042C186.311 20.131 189.039 18.0955 192.72 18.0955C195.973 18.0955 198.558 19.5025 199.798 22.6496C201.713 19.5025 205.157 18.0955 208.267 18.0955C212.858 18.0955 216.591 20.9518 216.591 27.9448V43.9806H210.804V28.32C210.804 24.5679 209.224 22.992 206.356 22.992C203.489 22.992 200.853 24.929 200.853 28.8031V43.9665H195.067V28.32C195.067 24.5679 193.44 22.992 190.619 22.992C187.798 22.992 185.116 24.9525 185.116 28.8031V43.9665H179.33V18.6301Z" fill="white"/>
<path d="M221.415 36.9445C221.415 31.0349 227.057 28.9055 234.233 28.9055H237.343V27.597C237.343 24.206 236.195 22.5081 232.797 22.5081C229.786 22.5081 228.303 23.9621 228.015 26.4807H222.438C222.902 20.5711 227.55 18.0994 233.15 18.0994C238.751 18.0994 243.148 20.4445 243.148 27.3531V43.9704H237.44V40.8702C235.814 43.0511 233.615 44.4535 229.79 44.4535C225.198 44.4535 221.424 42.2256 221.424 36.9492L221.415 36.9445ZM237.352 35.1106V32.592H234.387C229.985 32.592 227.164 33.6098 227.164 36.71C227.164 38.8393 228.312 40.2464 231.18 40.2464C234.721 40.2464 237.347 38.3703 237.347 35.1106" fill="white"/>
<path d="M265.748 31.5657V31.1764C265.748 23.3297 271.056 18.0955 278.186 18.0955C284.404 18.0955 290 21.8476 290 30.8856V32.5787H271.683C271.874 37.3768 274.268 40.083 278.571 40.083C282.062 40.083 283.879 38.676 284.311 36.2089H289.888C289.075 41.537 284.818 44.4449 278.409 44.4449C271.042 44.4449 265.734 39.553 265.734 31.561L265.748 31.5657ZM284.246 28.653C283.958 24.2912 281.76 22.3541 278.172 22.3541C274.681 22.3541 272.334 24.7274 271.762 28.653H284.246Z" fill="white"/>
<path d="M28.2579 34.4916C26.0084 38.3985 22.518 40.1198 18.8464 40.1198C11.5077 40.1198 6.04199 34.773 6.04199 26.7481V26.3588C6.04199 25.9789 6.04199 25.6318 6.07917 25.266H37.6276V0L18.8231 14.1643L0 0V52H37.6462V40.1198C33.9746 40.1057 30.7491 38.3844 28.2579 34.4916Z" fill="white"/>
<path d="M18.8459 35.7384C22.5641 35.7384 24.8043 33.7592 25.1017 29.2988H11.6699C12.2602 33.3371 15.2533 35.7384 18.8459 35.7384Z" fill="white"/>
<path d="M31.418 29.3243H45.0124C44.789 31.1199 43.9154 32.7686 42.5597 33.9531C41.204 35.1376 39.462 35.7743 37.6691 35.7405C33.9742 35.7405 31.7154 33.7847 31.418 29.3243Z" fill="white"/>
</svg>
