<svg width="221" height="53" viewBox="0 0 221 53" fill="none" xmlns="http://www.w3.org/2000/svg">
<path fill-rule="evenodd" clip-rule="evenodd" d="M77.1654 39.1063C77.1654 39.8125 76.7356 39.9989 76.7356 41.3206C76.7356 43.3019 77.9839 45.4009 82.0007 45.4009C84.5993 45.4009 86.6393 44.1797 86.6393 41.9851C86.6393 39.0205 83.6424 38.0127 80.6699 36.3305C77.7361 34.6704 74.8267 32.3581 74.8267 26.8703C74.8267 20.4923 80.5581 16.6523 88.5117 16.6499C91.7684 16.6499 94.0246 17.2016 96.4969 18.7832C98.192 15.0805 102.403 12.442 107.166 12.442C114.539 12.442 117.766 17.1525 117.766 21.0563C117.766 26.5736 111.838 35.8916 111.838 40.9307C111.838 42.0758 112.742 42.7036 113.66 42.706C119.083 42.706 124.928 28.5156 125.237 18.4473C125.242 18.0767 125.369 17.7186 125.598 17.4285C125.826 17.1384 126.143 16.9328 126.499 16.8436C126.992 16.7161 127.617 16.6474 128.345 16.6474C131.376 16.6474 134.604 18.3222 134.57 22.7139C134.509 30.5877 129.015 37.6179 129.015 41.4432C129.015 42.4363 129.887 43.503 131.575 43.503C137.253 43.503 141.642 30.134 141.642 19.6071C141.642 18.5159 142.766 17.6552 145.382 17.6552C148.83 17.6552 151.22 19.666 151.011 24.9772C151.293 24.553 155.795 16.6499 162.688 16.6499C167.193 16.6499 169.092 19.4968 169.092 23.1382C169.092 23.1382 172.016 16.6499 179.785 16.6499C184.287 16.6499 186.75 19.384 186.752 23.8468C186.752 30.8599 180.419 38.4908 180.419 41.9606C180.419 43.0984 181.196 43.5226 182.109 43.5226C184.443 43.5226 187.84 41.377 189.055 38.0617C189.985 35.5164 192.809 28.192 198.565 28.192C200.537 28.192 200.996 29.0183 200.996 29.8251C200.996 31.5366 199.184 32.0393 199.184 38.1451C199.184 42.7428 200.598 44.7339 202.846 44.7339C205.994 44.7339 210.771 38.0911 210.771 29.8324C210.771 26.294 208.767 22.9542 203.728 22.9542C199.973 22.9542 199.029 24.1116 197.511 24.1116C197.011 24.1116 195.981 23.7683 195.981 22.5742C195.981 20.2005 201.856 16.6499 208.541 16.6499C218.319 16.6499 221 25.3205 221 30.291C221 42.9439 210.416 52.9976 201.273 52.9976C195.417 52.9976 192.374 50.2021 190.806 47.0879L190.801 47.0953C188.081 50.0501 183.182 52.9976 177.648 52.9976C172.584 52.9976 169.699 50.6778 169.699 46.0703C169.699 40.1852 175.78 30.7912 175.78 27.9566C175.78 27.2479 175.637 26.8948 175.003 26.8948C169.713 26.8948 162.884 41.0263 161.857 50.2634C161.808 50.695 161.403 52.9976 158.608 52.9976C155.441 52.9976 152.354 51.031 152.354 46.7079C152.354 40.7541 158.68 30.7201 158.678 27.9541C158.678 27.3166 158.467 26.8948 157.765 26.8948C154.673 26.8948 151.261 31.8628 148.769 37.8337C147.06 41.9287 145.794 46.4945 145.338 50.2536C145.248 51.0064 144.668 53 142.076 53C138.905 53 137.049 51.2664 136.119 49.0913C133.809 51.0972 130.946 52.9976 127.813 52.9976C122.041 52.9976 119.969 50.234 119.755 47.2571C119.755 47.2571 116.605 52.9976 109.006 52.9976C105.288 52.9976 101.701 49.9152 101.701 43.3975C101.701 36.0755 105.876 30.6343 107.43 23.9792C107.897 21.7429 106.085 20.4653 104.05 20.4653C101.446 20.4653 100.162 22.2873 100.162 25.2445C100.162 28.4176 98.3984 30.9383 94.2261 30.9383C94.0254 30.9396 93.8264 30.9007 93.6406 30.8238C93.4549 30.7469 93.286 30.6336 93.144 30.4903C93.0019 30.3471 92.8894 30.1769 92.8129 29.9894C92.7365 29.802 92.6976 29.6011 92.6986 29.3984C92.6986 28.9889 92.8321 28.5647 92.8321 27.5103C92.8321 24.8865 90.7266 23.3956 88.1183 23.3956C85.7261 23.3956 84.6017 24.6045 84.6017 26.4485C84.6017 29.5946 87.8123 30.6784 90.9573 32.2551C93.976 33.7681 96.9316 35.7322 96.9316 40.4035C96.9316 48.4832 89.9057 52.9976 81.1847 52.9976C76.7404 52.9976 73.4983 52.0118 71.6429 49.8441C69.4808 51.9007 66.6133 53.031 63.6431 52.9976C57.239 52.9976 57.0107 47.4067 57.0107 47.4067C57.0107 47.4067 53.9993 52.9976 44.9213 52.9976C37.4874 52.9976 35.9016 47.0806 35.9016 47.0806C32.1859 50.4057 26.6099 52.9976 18.9623 52.9976C6.46 52.9976 0 45.2685 0 33.3978C0 20.7277 10.8557 0 27.863 0C36.9896 0 41.667 5.41917 41.667 11.4734C41.667 17.0422 37.3344 23.1283 30.0997 23.1283C26.2699 23.1283 25.2183 21.8017 25.2183 20.8724C25.2183 19.1216 29.5921 18.0402 29.5921 13.1115C29.5921 10.549 27.9844 8.72217 25.7404 8.72217C19.4844 8.72217 11.135 21.4364 11.135 31.6985C11.135 40.0112 14.8944 44.4495 22.1753 44.4495C26.5589 44.4495 32.7444 41.1882 34.323 36.5071C36.7273 29.3665 42.4271 16.645 58.1206 16.645C65.9843 16.645 68.7334 21.125 68.7334 23.1627C68.7334 23.7267 68.3036 24.7001 67.2034 24.7001C66.113 24.7001 64.549 23.349 59.9177 23.349C49.2466 23.349 44.5934 32.0908 44.5934 38.4173C44.5934 42.12 45.9389 43.9076 48.1659 43.9076C52.6927 43.9076 53.3703 39.8518 55.1747 33.9642C56.1729 30.7054 58.5019 28.1944 62.2006 28.1944C65.8677 28.1944 65.8434 29.8251 65.8386 30.085C65.8337 30.5215 65.6516 31.0928 65.2144 31.9829C63.92 34.6214 63.325 38.2751 63.325 39.9008C63.325 41.4653 63.9346 43.8634 66.6837 43.8634C70.4237 43.8634 70.4796 37.5664 75.6354 37.5664C76.6967 37.5664 77.1654 38.4516 77.1654 39.1063Z" fill="white"/>
</svg>
