<svg width="292" height="67" viewBox="0 0 292 67" fill="none" xmlns="http://www.w3.org/2000/svg">
<path d="M72.8662 49.1756V5.48047H99.4357V10.9587H78.368V24.3933H97.2887V29.8715H78.368V43.567H100.912V49.0452H72.8662V49.1756Z" fill="white"/>
<path d="M128.821 49.1742L119.696 37.5656L110.571 49.1742H104.13L116.61 33.6526L103.459 17.6094H110.705L119.696 29.6092L128.821 17.6094H135.933L123.453 33.6526L135.262 49.1742H128.821Z" fill="white"/>
<path d="M144.121 44.48V66.0014H138.619V33.7844C138.619 25.5671 145.06 16.8281 155.124 16.8281C165.323 16.8281 172.972 23.0889 172.972 33.3931C172.972 43.4365 165.189 50.3495 156.332 50.3495C152.038 50.3495 146.268 48.5234 144.121 44.48ZM167.201 33.3931C167.201 26.3497 162.505 22.1759 154.185 22.5672C150.159 22.6976 143.987 25.5671 144.523 35.6105C144.658 38.8713 148.147 45.0017 155.795 45.0017C162.371 45.0017 167.201 41.3496 167.201 33.3931Z" fill="white"/>
<path d="M177.669 49.172V17.6072H183.171V20.9985C185.855 17.9985 190.014 16.9551 194.443 16.9551V22.6941C193.772 22.5637 187.196 21.7811 183.171 30.1288V49.3025H177.669V49.172Z" fill="white"/>
<path d="M195.92 33.3931C195.92 24.2628 202.629 16.8281 211.888 16.8281C223.429 16.8281 227.723 24.2628 227.723 33.7844V36.3931H201.958C202.361 42.393 207.863 45.5234 212.962 45.393C216.719 45.2625 219.269 44.2191 221.953 41.6104L225.576 45.2625C222.221 48.3929 217.927 50.4799 212.694 50.4799C202.898 50.3494 195.92 43.3061 195.92 33.3931ZM211.486 22.1759C206.252 22.1759 202.227 26.6106 201.958 31.4366H221.953C221.953 26.741 218.464 22.1759 211.486 22.1759Z" fill="white"/>
<path d="M230.54 44.7387L234.566 41.217C234.432 41.217 236.579 43.3039 236.847 43.4344C237.786 44.217 238.726 44.7387 239.933 44.9996C243.422 45.9126 249.729 45.6518 250.266 40.9562C250.534 38.3475 248.521 36.9127 246.24 35.9997C243.288 34.9562 240.067 34.5649 237.115 33.2606C233.761 31.8258 231.614 29.3476 231.614 25.6955C231.614 16.1739 245.569 14.6087 251.876 19.0434C252.145 19.3043 255.231 22.0434 255.097 22.0434L251.071 25.1737C249.058 22.8259 247.18 21.6521 242.885 21.6521C240.738 21.6521 237.786 22.5651 237.25 24.7825C236.444 27.9129 240.067 29.0867 242.483 29.7389C245.703 30.5215 249.192 31.0432 252.01 32.7389C255.902 35.0867 256.841 40.1736 255.365 44.0865C253.755 48.3908 248.924 50.0865 244.63 50.2169C239.531 50.4778 235.102 48.9126 231.479 45.3909C231.211 45.3909 230.54 44.7387 230.54 44.7387Z" fill="white"/>
<path d="M258.85 44.7387L262.875 41.217C262.741 41.217 264.888 43.3039 265.156 43.4344C266.096 44.217 267.035 44.7387 268.243 44.9996C271.732 45.9126 278.039 45.6518 278.575 40.9562C278.844 38.3475 276.831 36.9127 274.55 35.9997C271.598 34.9562 268.377 34.5649 265.425 33.2606C262.07 31.8258 259.923 29.3476 259.923 25.6955C259.923 16.1739 273.879 14.6087 280.186 19.0434C280.454 19.3043 283.54 22.0434 283.406 22.0434L279.381 25.1737C277.368 22.8259 275.489 21.6521 271.195 21.6521C269.048 21.6521 266.096 22.5651 265.559 24.7825C264.754 27.9129 268.377 29.0867 270.792 29.7389C274.013 30.5215 277.502 31.0432 280.32 32.7389C284.211 35.0867 285.151 40.1736 283.675 44.0865C282.064 48.3908 277.234 50.0865 272.939 50.2169C267.84 50.4778 263.412 48.9126 259.789 45.3909C259.521 45.3909 258.85 44.7387 258.85 44.7387Z" fill="white"/>
<path d="M285.02 17.6059V14.2147H283.812V13.5625H287.033V14.2147H285.825V17.6059H285.02Z" fill="white"/>
<path d="M291.06 17.6059V14.4755L289.852 17.6059H289.584L288.376 14.4755V17.6059H287.705V13.5625H288.779L289.852 16.3016L290.926 13.5625H291.999V17.6059H291.06Z" fill="white"/>
<path d="M35.5602 49.1746L31.5345 38.74H9.79582L5.77014 49.1746H0L17.4446 5.47949H23.7515L41.0619 49.1746H35.5602ZM20.3968 11.7403L12.2112 33.3922H29.2533L20.3968 11.7403Z" fill="white"/>
<path d="M44.6846 49.1756V5.48047H50.3205V49.1756H44.6846Z" fill="white"/>
<path d="M58.7744 49.1783V18.2656H64.4104V49.1783H58.7744Z" fill="white"/>
<path d="M69.7791 8.21727C69.7791 8.08684 69.7791 8.08684 69.7791 7.95641C69.7791 7.82598 69.7791 7.82598 69.7791 7.69555C65.4851 7.56512 61.9961 4.17386 61.862 0C61.7278 0 61.5936 0 61.4594 0C61.3252 0 61.191 0 61.0568 0C60.9226 4.17386 57.4337 7.56512 53.1396 7.69555C53.1396 7.82598 53.1396 7.82598 53.1396 7.95641C53.1396 8.08684 53.1396 8.08684 53.1396 8.21727C57.4337 8.34771 60.9226 11.739 61.0568 15.9128C61.191 15.9128 61.3252 15.9128 61.4594 15.9128C61.5936 15.9128 61.7278 15.9128 61.862 15.9128C61.9961 11.739 65.4851 8.34771 69.7791 8.21727Z" fill="white"/>
</svg>
