<svg width="64" height="96" viewBox="0 0 64 96" fill="none" xmlns="http://www.w3.org/2000/svg">
<path d="M0.665052 95.1858C0.665052 95.0364 0.557274 94.9154 0.424323 94.9154C0.291372 94.9154 0.183594 95.0364 0.183594 95.1858C0.183594 95.3351 0.291372 95.4561 0.424323 95.4561C0.557274 95.4561 0.665052 95.3351 0.665052 95.1858Z" fill="#98DD0C"/>
<path d="M0.665052 83.3239C0.665052 83.1746 0.557274 83.0535 0.424323 83.0535C0.291372 83.0535 0.183594 83.1746 0.183594 83.3239C0.183594 83.4732 0.291372 83.5942 0.424323 83.5942C0.557274 83.5942 0.665052 83.4732 0.665052 83.3239Z" fill="#98DD0C"/>
<path d="M0.665052 71.4593C0.665052 71.3099 0.557274 71.1889 0.424323 71.1889C0.291372 71.1889 0.183594 71.3099 0.183594 71.4593C0.183594 71.6086 0.291372 71.7296 0.424323 71.7296C0.557274 71.7296 0.665052 71.6086 0.665052 71.4593Z" fill="#98DD0C"/>
<path d="M0.665052 59.5936C0.665052 59.4443 0.557274 59.3232 0.424323 59.3232C0.291372 59.3232 0.183594 59.4443 0.183594 59.5936C0.183594 59.7429 0.291372 59.864 0.424323 59.864C0.557274 59.864 0.665052 59.7429 0.665052 59.5936Z" fill="#98DD0C"/>
<path d="M0.665052 47.729C0.665052 47.5797 0.557274 47.4586 0.424323 47.4586C0.291372 47.4586 0.183594 47.5797 0.183594 47.729C0.183594 47.8783 0.291372 47.9993 0.424323 47.9993C0.557274 47.9993 0.665052 47.8783 0.665052 47.729Z" fill="#98DD0C"/>
<path d="M0.665052 35.8643C0.665052 35.715 0.557274 35.5939 0.424323 35.5939C0.291372 35.5939 0.183594 35.715 0.183594 35.8643C0.183594 36.0136 0.291372 36.1346 0.424323 36.1346C0.557274 36.1346 0.665052 36.0136 0.665052 35.8643Z" fill="#98DD0C"/>
<path d="M0.665052 23.9997C0.665052 23.8503 0.557274 23.7293 0.424323 23.7293C0.291372 23.7293 0.183594 23.8503 0.183594 23.9997C0.183594 24.149 0.291372 24.27 0.424323 24.27C0.557274 24.27 0.665052 24.149 0.665052 23.9997Z" fill="#98DD0C"/>
<path d="M0.665052 12.136C0.665052 11.9867 0.557274 11.8657 0.424323 11.8657C0.291372 11.8657 0.183594 11.9867 0.183594 12.136C0.183594 12.2853 0.291372 12.4064 0.424323 12.4064C0.557274 12.4064 0.665052 12.2853 0.665052 12.136Z" fill="#98DD0C"/>
<path d="M0.665052 0.273346C0.665052 0.124032 0.557274 0.00299165 0.424323 0.00299166C0.291372 0.00299167 0.183594 0.124032 0.183594 0.273346C0.183594 0.422661 0.291372 0.543701 0.424323 0.543701C0.557274 0.543701 0.665052 0.422661 0.665052 0.273346Z" fill="#98DD0C"/>
<path d="M11.209 95.1867C11.209 95.0374 11.1012 94.9164 10.9683 94.9164C10.8353 94.9164 10.7275 95.0374 10.7275 95.1867C10.7275 95.336 10.8353 95.4571 10.9683 95.4571C11.1012 95.4571 11.209 95.336 11.209 95.1867Z" fill="#98DD0C"/>
<path d="M11.208 83.3239C11.208 83.1746 11.1002 83.0535 10.9673 83.0535C10.8343 83.0535 10.7266 83.1746 10.7266 83.3239C10.7266 83.4732 10.8343 83.5942 10.9673 83.5942C11.1002 83.5942 11.208 83.4732 11.208 83.3239Z" fill="#98DD0C"/>
<path d="M11.208 71.4593C11.208 71.3099 11.1002 71.1889 10.9673 71.1889C10.8343 71.1889 10.7266 71.3099 10.7266 71.4593C10.7266 71.6086 10.8343 71.7296 10.9673 71.7296C11.1002 71.7296 11.208 71.6086 11.208 71.4593Z" fill="#98DD0C"/>
<path d="M11.208 59.5926C11.208 59.4432 11.1002 59.3222 10.9673 59.3222C10.8343 59.3222 10.7266 59.4432 10.7266 59.5926C10.7266 59.7419 10.8343 59.8629 10.9673 59.8629C11.1002 59.8629 11.208 59.7419 11.208 59.5926Z" fill="#98DD0C"/>
<path d="M11.208 47.7279C11.208 47.5786 11.1002 47.4576 10.9673 47.4576C10.8343 47.4576 10.7266 47.5786 10.7266 47.7279C10.7266 47.8773 10.8343 47.9983 10.9673 47.9983C11.1002 47.9983 11.208 47.8773 11.208 47.7279Z" fill="#98DD0C"/>
<path d="M11.208 35.8643C11.208 35.715 11.1002 35.5939 10.9673 35.5939C10.8343 35.5939 10.7266 35.715 10.7266 35.8643C10.7266 36.0136 10.8343 36.1346 10.9673 36.1346C11.1002 36.1346 11.208 36.0136 11.208 35.8643Z" fill="#98DD0C"/>
<path d="M11.208 23.9997C11.208 23.8503 11.1002 23.7293 10.9673 23.7293C10.8343 23.7293 10.7266 23.8503 10.7266 23.9997C10.7266 24.149 10.8343 24.27 10.9673 24.27C11.1002 24.27 11.208 24.149 11.208 23.9997Z" fill="#98DD0C"/>
<path d="M11.208 12.135C11.208 11.9857 11.1002 11.8647 10.9673 11.8647C10.8343 11.8647 10.7266 11.9857 10.7266 12.135C10.7266 12.2844 10.8343 12.4054 10.9673 12.4054C11.1002 12.4054 11.208 12.2844 11.208 12.135Z" fill="#98DD0C"/>
<path d="M11.208 0.27237C11.208 0.123056 11.1002 0.00201509 10.9673 0.0020151C10.8343 0.00201511 10.7266 0.123056 10.7266 0.27237C10.7266 0.421684 10.8343 0.542725 10.9673 0.542725C11.1002 0.542725 11.208 0.421684 11.208 0.27237Z" fill="#98DD0C"/>
<path d="M21.752 95.1867C21.752 95.0374 21.6442 94.9164 21.5112 94.9164C21.3783 94.9164 21.2705 95.0374 21.2705 95.1867C21.2705 95.336 21.3783 95.4571 21.5112 95.4571C21.6442 95.4571 21.752 95.336 21.752 95.1867Z" fill="#98DD0C"/>
<path d="M21.751 83.3239C21.751 83.1746 21.6432 83.0535 21.5103 83.0535C21.3773 83.0535 21.2695 83.1746 21.2695 83.3239C21.2695 83.4732 21.3773 83.5942 21.5103 83.5942C21.6432 83.5942 21.751 83.4732 21.751 83.3239Z" fill="#98DD0C"/>
<path d="M21.751 71.4593C21.751 71.3099 21.6432 71.1889 21.5103 71.1889C21.3773 71.1889 21.2695 71.3099 21.2695 71.4593C21.2695 71.6086 21.3773 71.7296 21.5103 71.7296C21.6432 71.7296 21.751 71.6086 21.751 71.4593Z" fill="#98DD0C"/>
<path d="M21.751 59.5926C21.751 59.4432 21.6432 59.3222 21.5103 59.3222C21.3773 59.3222 21.2695 59.4432 21.2695 59.5926C21.2695 59.7419 21.3773 59.8629 21.5103 59.8629C21.6432 59.8629 21.751 59.7419 21.751 59.5926Z" fill="#98DD0C"/>
<path d="M21.751 47.7279C21.751 47.5786 21.6432 47.4576 21.5103 47.4576C21.3773 47.4576 21.2695 47.5786 21.2695 47.7279C21.2695 47.8773 21.3773 47.9983 21.5103 47.9983C21.6432 47.9983 21.751 47.8773 21.751 47.7279Z" fill="#98DD0C"/>
<path d="M21.751 35.8643C21.751 35.715 21.6432 35.5939 21.5103 35.5939C21.3773 35.5939 21.2695 35.715 21.2695 35.8643C21.2695 36.0136 21.3773 36.1346 21.5103 36.1346C21.6432 36.1346 21.751 36.0136 21.751 35.8643Z" fill="#98DD0C"/>
<path d="M21.751 23.9997C21.751 23.8503 21.6432 23.7293 21.5103 23.7293C21.3773 23.7293 21.2695 23.8503 21.2695 23.9997C21.2695 24.149 21.3773 24.27 21.5103 24.27C21.6432 24.27 21.751 24.149 21.751 23.9997Z" fill="#98DD0C"/>
<path d="M21.751 12.135C21.751 11.9857 21.6432 11.8647 21.5103 11.8647C21.3773 11.8647 21.2695 11.9857 21.2695 12.135C21.2695 12.2844 21.3773 12.4054 21.5103 12.4054C21.6432 12.4054 21.751 12.2844 21.751 12.135Z" fill="#98DD0C"/>
<path d="M21.751 0.27237C21.751 0.123056 21.6432 0.00201509 21.5103 0.0020151C21.3773 0.00201511 21.2695 0.123056 21.2695 0.27237C21.2695 0.421684 21.3773 0.542725 21.5103 0.542725C21.6432 0.542725 21.751 0.421684 21.751 0.27237Z" fill="#98DD0C"/>
<path d="M32.2969 95.1867C32.2969 95.0374 32.1891 94.9164 32.0562 94.9164C31.9232 94.9164 31.8154 95.0374 31.8154 95.1867C31.8154 95.336 31.9232 95.4571 32.0562 95.4571C32.1891 95.4571 32.2969 95.336 32.2969 95.1867Z" fill="#98DD0C"/>
<path d="M32.2979 83.3239C32.2979 83.1746 32.1901 83.0535 32.0571 83.0535C31.9242 83.0535 31.8164 83.1746 31.8164 83.3239C31.8164 83.4732 31.9242 83.5942 32.0571 83.5942C32.1901 83.5942 32.2979 83.4732 32.2979 83.3239Z" fill="#98DD0C"/>
<path d="M32.2979 71.4593C32.2979 71.3099 32.1901 71.1889 32.0571 71.1889C31.9242 71.1889 31.8164 71.3099 31.8164 71.4593C31.8164 71.6086 31.9242 71.7296 32.0571 71.7296C32.1901 71.7296 32.2979 71.6086 32.2979 71.4593Z" fill="#98DD0C"/>
<path d="M32.2979 59.5926C32.2979 59.4432 32.1901 59.3222 32.0571 59.3222C31.9242 59.3222 31.8164 59.4432 31.8164 59.5926C31.8164 59.7419 31.9242 59.8629 32.0571 59.8629C32.1901 59.8629 32.2979 59.7419 32.2979 59.5926Z" fill="#98DD0C"/>
<path d="M32.2979 47.7279C32.2979 47.5786 32.1901 47.4576 32.0571 47.4576C31.9242 47.4576 31.8164 47.5786 31.8164 47.7279C31.8164 47.8773 31.9242 47.9983 32.0571 47.9983C32.1901 47.9983 32.2979 47.8773 32.2979 47.7279Z" fill="#98DD0C"/>
<path d="M32.2979 35.8643C32.2979 35.715 32.1901 35.5939 32.0571 35.5939C31.9242 35.5939 31.8164 35.715 31.8164 35.8643C31.8164 36.0136 31.9242 36.1346 32.0571 36.1346C32.1901 36.1346 32.2979 36.0136 32.2979 35.8643Z" fill="#98DD0C"/>
<path d="M32.2979 23.9997C32.2979 23.8503 32.1901 23.7293 32.0571 23.7293C31.9242 23.7293 31.8164 23.8503 31.8164 23.9997C31.8164 24.149 31.9242 24.27 32.0571 24.27C32.1901 24.27 32.2979 24.149 32.2979 23.9997Z" fill="#98DD0C"/>
<path d="M32.2979 12.135C32.2979 11.9857 32.1901 11.8647 32.0571 11.8647C31.9242 11.8647 31.8164 11.9857 31.8164 12.135C31.8164 12.2844 31.9242 12.4054 32.0571 12.4054C32.1901 12.4054 32.2979 12.2844 32.2979 12.135Z" fill="#98DD0C"/>
<path d="M32.2979 0.27237C32.2979 0.123056 32.1901 0.00201509 32.0571 0.0020151C31.9242 0.00201511 31.8164 0.123056 31.8164 0.27237C31.8164 0.421684 31.9242 0.542725 32.0571 0.542725C32.1901 0.542725 32.2979 0.421684 32.2979 0.27237Z" fill="#98DD0C"/>
<path d="M42.8369 95.1867C42.8369 95.0374 42.7291 94.9164 42.5962 94.9164C42.4632 94.9164 42.3555 95.0374 42.3555 95.1867C42.3555 95.336 42.4632 95.4571 42.5962 95.4571C42.7291 95.4571 42.8369 95.336 42.8369 95.1867Z" fill="#98DD0C"/>
<path d="M42.8369 83.3239C42.8369 83.1746 42.7291 83.0535 42.5962 83.0535C42.4632 83.0535 42.3555 83.1746 42.3555 83.3239C42.3555 83.4732 42.4632 83.5942 42.5962 83.5942C42.7291 83.5942 42.8369 83.4732 42.8369 83.3239Z" fill="#98DD0C"/>
<path d="M42.8369 71.4593C42.8369 71.3099 42.7291 71.1889 42.5962 71.1889C42.4632 71.1889 42.3555 71.3099 42.3555 71.4593C42.3555 71.6086 42.4632 71.7296 42.5962 71.7296C42.7291 71.7296 42.8369 71.6086 42.8369 71.4593Z" fill="#98DD0C"/>
<path d="M42.8369 59.5926C42.8369 59.4432 42.7291 59.3222 42.5962 59.3222C42.4632 59.3222 42.3555 59.4432 42.3555 59.5926C42.3555 59.7419 42.4632 59.8629 42.5962 59.8629C42.7291 59.8629 42.8369 59.7419 42.8369 59.5926Z" fill="#98DD0C"/>
<path d="M42.8369 47.7279C42.8369 47.5786 42.7291 47.4576 42.5962 47.4576C42.4632 47.4576 42.3555 47.5786 42.3555 47.7279C42.3555 47.8773 42.4632 47.9983 42.5962 47.9983C42.7291 47.9983 42.8369 47.8773 42.8369 47.7279Z" fill="#98DD0C"/>
<path d="M42.8369 35.8643C42.8369 35.715 42.7291 35.5939 42.5962 35.5939C42.4632 35.5939 42.3555 35.715 42.3555 35.8643C42.3555 36.0136 42.4632 36.1346 42.5962 36.1346C42.7291 36.1346 42.8369 36.0136 42.8369 35.8643Z" fill="#98DD0C"/>
<path d="M42.8369 23.9997C42.8369 23.8503 42.7291 23.7293 42.5962 23.7293C42.4632 23.7293 42.3555 23.8503 42.3555 23.9997C42.3555 24.149 42.4632 24.27 42.5962 24.27C42.7291 24.27 42.8369 24.149 42.8369 23.9997Z" fill="#98DD0C"/>
<path d="M42.8369 12.135C42.8369 11.9857 42.7291 11.8647 42.5962 11.8647C42.4632 11.8647 42.3555 11.9857 42.3555 12.135C42.3555 12.2844 42.4632 12.4054 42.5962 12.4054C42.7291 12.4054 42.8369 12.2844 42.8369 12.135Z" fill="#98DD0C"/>
<path d="M42.8369 0.27237C42.8369 0.123056 42.7291 0.00201509 42.5962 0.0020151C42.4632 0.00201511 42.3555 0.123056 42.3555 0.27237C42.3555 0.421684 42.4632 0.542725 42.5962 0.542725C42.7291 0.542725 42.8369 0.421684 42.8369 0.27237Z" fill="#98DD0C"/>
<path d="M53.3779 95.1867C53.3779 95.0374 53.2702 94.9164 53.1372 94.9164C53.0043 94.9164 52.8965 95.0374 52.8965 95.1867C52.8965 95.336 53.0043 95.4571 53.1372 95.4571C53.2702 95.4571 53.3779 95.336 53.3779 95.1867Z" fill="#98DD0C"/>
<path d="M53.3779 83.3239C53.3779 83.1746 53.2702 83.0535 53.1372 83.0535C53.0043 83.0535 52.8965 83.1746 52.8965 83.3239C52.8965 83.4732 53.0043 83.5942 53.1372 83.5942C53.2702 83.5942 53.3779 83.4732 53.3779 83.3239Z" fill="#98DD0C"/>
<path d="M53.3779 71.4593C53.3779 71.3099 53.2702 71.1889 53.1372 71.1889C53.0043 71.1889 52.8965 71.3099 52.8965 71.4593C52.8965 71.6086 53.0043 71.7296 53.1372 71.7296C53.2702 71.7296 53.3779 71.6086 53.3779 71.4593Z" fill="#98DD0C"/>
<path d="M53.3779 59.5926C53.3779 59.4432 53.2702 59.3222 53.1372 59.3222C53.0043 59.3222 52.8965 59.4432 52.8965 59.5926C52.8965 59.7419 53.0043 59.8629 53.1372 59.8629C53.2702 59.8629 53.3779 59.7419 53.3779 59.5926Z" fill="#98DD0C"/>
<path d="M53.3779 47.7279C53.3779 47.5786 53.2702 47.4576 53.1372 47.4576C53.0043 47.4576 52.8965 47.5786 52.8965 47.7279C52.8965 47.8773 53.0043 47.9983 53.1372 47.9983C53.2702 47.9983 53.3779 47.8773 53.3779 47.7279Z" fill="#98DD0C"/>
<path d="M53.3779 35.8643C53.3779 35.715 53.2702 35.5939 53.1372 35.5939C53.0043 35.5939 52.8965 35.715 52.8965 35.8643C52.8965 36.0136 53.0043 36.1346 53.1372 36.1346C53.2702 36.1346 53.3779 36.0136 53.3779 35.8643Z" fill="#98DD0C"/>
<path d="M53.3779 23.9997C53.3779 23.8503 53.2702 23.7293 53.1372 23.7293C53.0043 23.7293 52.8965 23.8503 52.8965 23.9997C52.8965 24.149 53.0043 24.27 53.1372 24.27C53.2702 24.27 53.3779 24.149 53.3779 23.9997Z" fill="#98DD0C"/>
<path d="M53.3779 12.135C53.3779 11.9857 53.2702 11.8647 53.1372 11.8647C53.0043 11.8647 52.8965 11.9857 52.8965 12.135C52.8965 12.2844 53.0043 12.4054 53.1372 12.4054C53.2702 12.4054 53.3779 12.2844 53.3779 12.135Z" fill="#98DD0C"/>
<path d="M53.3779 0.27237C53.3779 0.123056 53.2702 0.00201509 53.1372 0.0020151C53.0043 0.00201511 52.8965 0.123056 52.8965 0.27237C52.8965 0.421684 53.0043 0.542725 53.1372 0.542725C53.2702 0.542725 53.3779 0.421684 53.3779 0.27237Z" fill="#98DD0C"/>
<path d="M63.9219 95.1867C63.9219 95.0374 63.8141 94.9164 63.6812 94.9164C63.5482 94.9164 63.4404 95.0374 63.4404 95.1867C63.4404 95.336 63.5482 95.4571 63.6812 95.4571C63.8141 95.4571 63.9219 95.336 63.9219 95.1867Z" fill="#98DD0C"/>
<path d="M63.9209 83.3239C63.9209 83.1746 63.8131 83.0535 63.6802 83.0535C63.5472 83.0535 63.4395 83.1746 63.4395 83.3239C63.4395 83.4732 63.5472 83.5942 63.6802 83.5942C63.8131 83.5942 63.9209 83.4732 63.9209 83.3239Z" fill="#98DD0C"/>
<path d="M63.9209 71.4593C63.9209 71.3099 63.8131 71.1889 63.6802 71.1889C63.5472 71.1889 63.4395 71.3099 63.4395 71.4593C63.4395 71.6086 63.5472 71.7296 63.6802 71.7296C63.8131 71.7296 63.9209 71.6086 63.9209 71.4593Z" fill="#98DD0C"/>
<path d="M63.9209 59.5926C63.9209 59.4432 63.8131 59.3222 63.6802 59.3222C63.5472 59.3222 63.4395 59.4432 63.4395 59.5926C63.4395 59.7419 63.5472 59.8629 63.6802 59.8629C63.8131 59.8629 63.9209 59.7419 63.9209 59.5926Z" fill="#98DD0C"/>
<path d="M63.9209 47.7279C63.9209 47.5786 63.8131 47.4576 63.6802 47.4576C63.5472 47.4576 63.4395 47.5786 63.4395 47.7279C63.4395 47.8773 63.5472 47.9983 63.6802 47.9983C63.8131 47.9983 63.9209 47.8773 63.9209 47.7279Z" fill="#98DD0C"/>
<path d="M63.9209 35.8643C63.9209 35.715 63.8131 35.5939 63.6802 35.5939C63.5472 35.5939 63.4395 35.715 63.4395 35.8643C63.4395 36.0136 63.5472 36.1346 63.6802 36.1346C63.8131 36.1346 63.9209 36.0136 63.9209 35.8643Z" fill="#98DD0C"/>
<path d="M63.9209 23.9997C63.9209 23.8503 63.8131 23.7293 63.6802 23.7293C63.5472 23.7293 63.4395 23.8503 63.4395 23.9997C63.4395 24.149 63.5472 24.27 63.6802 24.27C63.8131 24.27 63.9209 24.149 63.9209 23.9997Z" fill="#98DD0C"/>
<path d="M63.9209 12.135C63.9209 11.9857 63.8131 11.8647 63.6802 11.8647C63.5472 11.8647 63.4395 11.9857 63.4395 12.135C63.4395 12.2844 63.5472 12.4054 63.6802 12.4054C63.8131 12.4054 63.9209 12.2844 63.9209 12.135Z" fill="#98DD0C"/>
<path d="M63.9209 0.27237C63.9209 0.123056 63.8131 0.00201509 63.6802 0.0020151C63.5472 0.00201511 63.4395 0.123056 63.4395 0.27237C63.4395 0.421684 63.5472 0.542725 63.6802 0.542725C63.8131 0.542725 63.9209 0.421684 63.9209 0.27237Z" fill="#98DD0C"/>
</svg>
