<svg width="210" height="102" viewBox="0 0 210 102" fill="none" xmlns="http://www.w3.org/2000/svg">
<path d="M40.4545 77.5133C40.3941 77.5133 40.3379 77.5282 40.2781 77.5312C40.2194 77.5288 40.1638 77.5133 40.104 77.5133H26.6281C24.4618 77.5133 22.6867 79.2865 22.6867 81.4546C22.6867 83.6227 24.4618 85.3954 26.6281 85.3954H32.18C31.9957 86.0098 31.614 86.778 31.0666 87.5779C29.5219 89.8339 25.8432 92.3394 22.4875 92.3394C13.8426 92.3394 9.8522 85.3631 9.8522 76.7577C9.8522 68.1493 15.5423 61.4972 24.1878 61.4972C26.9745 61.4972 29.0959 61.9519 31.2108 63.1681C31.9748 63.6061 32.7453 64.1068 33.5075 64.5944L35.8862 66.4257C37.6032 67.7484 40.089 67.4266 41.4136 65.7096C42.6047 64.1625 42.2786 62.0075 41.1545 60.616C39.3448 58.4215 37.209 57.0569 37.209 57.0569C33.401 54.4957 28.8076 53.0001 23.8659 53.0001C10.6844 53.0001 0 63.6354 0 76.7577C0 89.8788 7.83784 100.515 21.0188 100.515C26.3146 100.515 32.6855 98.4465 36.5138 92.9473V96.6033C36.5138 98.7714 38.2864 100.546 40.4545 100.546C42.6227 100.546 44.3959 98.7714 44.3959 96.6033V81.4541C44.3959 79.2859 42.6227 77.5133 40.4545 77.5133Z" fill="white"/>
<path d="M74.3037 90.6219C73.6839 90.8839 70.1254 92.6464 65.228 92.6464C57.8203 92.6464 57.0546 86.3658 57.0402 85.4636C57.0258 84.5507 57.0785 84.6153 57.0785 84.6153H75.0222C80.4999 84.6153 79.9519 79.2286 79.9519 79.2286C79.9519 72.3402 75.773 63.7617 64.3468 63.7617C52.9206 63.7617 49.0833 73.094 48.4629 76.6524C47.8425 80.2109 45.9993 92.0583 55.663 97.935C65.3261 103.811 75.1203 97.935 75.1203 97.935C78.132 96.507 80.3766 93.731 78.817 91.3535C77.5499 89.423 74.9241 90.361 74.3037 90.6219ZM57.0013 78.0368C57.0013 73.9357 60.2828 71.0252 64.3306 71.0252C68.3785 71.0252 71.6594 73.9351 71.6594 78.0368C71.6594 78.1511 71.5708 78.184 71.5708 78.184H57.121C56.9642 78.184 57.0013 78.0368 57.0013 78.0368Z" fill="white"/>
<path d="M103.011 94.6099C102.683 94.072 102.239 93.6634 101.678 93.3816C101.278 93.195 100.868 93.0663 100.446 92.9946C100.027 92.9246 99.5222 92.8677 98.9383 92.8199C98.3526 92.7977 97.8716 92.6906 97.4977 92.5028C97.1219 92.3167 96.8246 92.0828 96.6015 91.801C96.3789 91.521 96.2216 91.1866 96.127 90.8001C96.0331 90.4142 95.9876 90.011 95.9876 89.5886V71.4445H97.6574C99.582 71.4445 101.157 69.8699 101.157 67.9453V67.8131C101.157 65.8885 99.582 64.3132 97.6574 64.3132H95.9751V57.5935C95.9751 55.0958 93.9314 53.0521 91.4337 53.0521C88.9359 53.0521 86.8922 55.0958 86.8922 57.5935V64.3132H85.2219C83.2973 64.3132 81.7227 65.8885 81.7227 67.8131V67.9453C81.7227 69.8699 83.2973 71.4445 85.2219 71.4445H86.8569V90.0804C86.8569 91.4163 87.049 92.708 87.4361 93.9608C87.8231 95.2129 88.4417 96.3323 89.2985 97.3152C90.151 98.2976 91.2464 99.0813 92.5817 99.6682C93.9153 100.254 95.5306 100.547 97.4277 100.547H97.9194C98.809 100.547 99.5569 100.492 100.167 100.387C100.774 100.281 101.277 100.125 101.677 99.9129C102.214 99.6323 102.654 99.2243 102.993 98.6834C103.331 98.1468 103.502 97.466 103.502 96.6464C103.503 95.8273 103.338 95.1489 103.011 94.6099Z" fill="white"/>
<path d="M125.065 94.6099C124.737 94.072 124.293 93.6634 123.731 93.3816C123.331 93.195 122.922 93.0663 122.5 92.9946C122.08 92.9246 121.576 92.8677 120.992 92.8199C120.406 92.7977 119.925 92.6906 119.551 92.5028C119.175 92.3167 118.878 92.0828 118.655 91.801C118.432 91.521 118.275 91.1866 118.18 90.8001C118.086 90.4142 118.041 90.011 118.041 89.5886V71.4445H119.711C121.636 71.4445 123.211 69.8699 123.211 67.9453V67.8131C123.211 65.8885 121.636 64.3132 119.711 64.3132H118.028V57.5935C118.028 55.0958 115.985 53.0521 113.487 53.0521C110.989 53.0521 108.946 55.0958 108.946 57.5935V64.3132H107.275C105.35 64.3132 103.775 65.8885 103.775 67.8131V67.9453C103.775 69.8699 105.35 71.4445 107.275 71.4445H108.91V90.0804C108.91 91.4163 109.102 92.708 109.489 93.9608C109.876 95.2129 110.495 96.3323 111.351 97.3152C112.204 98.2976 113.299 99.0813 114.634 99.6682C115.968 100.254 117.583 100.547 119.48 100.547H119.972C120.862 100.547 121.61 100.492 122.22 100.387C122.827 100.281 123.33 100.125 123.73 99.9129C124.267 99.6323 124.707 99.2243 125.045 98.6834C125.384 98.1468 125.555 97.466 125.555 96.6464C125.556 95.8273 125.392 95.1489 125.065 94.6099Z" fill="white"/>
<path d="M203.681 40.9965C200.694 40.9965 198.272 43.4177 198.271 46.406C198.272 49.3931 200.694 51.8155 203.681 51.8155C206.669 51.8155 209.092 49.3931 209.092 46.406C209.092 43.4177 206.669 40.9965 203.681 40.9965ZM203.681 50.9391C201.178 50.9337 199.153 48.9092 199.149 46.406C199.153 43.9041 201.178 41.8778 203.681 41.8736C206.185 41.8778 208.209 43.9041 208.214 46.406C208.209 48.9092 206.185 50.9337 203.681 50.9391ZM205.175 47.0653C205.013 46.8924 204.81 46.7351 204.563 46.5909C205.06 46.5197 205.432 46.3456 205.682 46.0686C205.931 45.7922 206.056 45.4428 206.056 45.0186C206.056 44.6848 205.975 44.3881 205.809 44.129C205.645 43.8688 205.426 43.6881 205.152 43.587C204.879 43.4859 204.439 43.4344 203.835 43.4344H201.434V49.0856H202.575V46.7261H202.806C203.068 46.7261 203.26 46.747 203.381 46.7895C203.501 46.832 203.616 46.9104 203.723 47.0252C203.831 47.1389 204.032 47.4171 204.326 47.855L205.15 49.0856H206.514L205.824 47.983C205.552 47.5433 205.336 47.237 205.175 47.0653ZM203.419 45.8251H202.575V44.3917H203.466C203.927 44.3917 204.206 44.3976 204.298 44.4102C204.483 44.4407 204.627 44.5149 204.729 44.6322C204.83 44.7494 204.88 44.902 204.88 45.0922C204.88 45.2615 204.842 45.4027 204.765 45.5158C204.688 45.6295 204.581 45.7078 204.444 45.7557C204.308 45.8012 203.966 45.8251 203.419 45.8251Z" fill="white"/>
<path d="M195.538 92.5213C195.538 96.9359 191.926 100.546 187.514 100.546H144.117C139.697 100.546 136.09 96.9359 136.09 92.5213V49.1179C136.09 44.7033 139.697 41.0982 144.117 41.0982H187.514C191.926 41.0982 195.538 44.7033 195.538 49.1179V92.5213Z" fill="white"/>
<mask id="path-7-outside-1" maskUnits="userSpaceOnUse" x="143.412" y="0" width="52" height="102" fill="black">
<rect fill="white" x="143.412" width="52" height="102"/>
<path d="M153.346 58.5053L154.034 58.3408L154.158 57.7054L154.417 57.718C154.894 61.6629 155.245 64.2121 155.25 66.5633C155.276 77.9674 152.783 88.8109 152.666 100.548H163.808C164.836 97.728 165.594 94.2401 166.905 91.7035C167.994 94.273 168.813 97.5132 169.438 100.548H181.062C180.487 92.4902 180.252 86.9641 178.81 76.9013C179.682 76.9294 180.155 76.7565 180.78 76.5381C178.656 69.6485 177.858 50.2056 180.04 40.0279C180.473 38.8625 182.51 33.7222 182.51 30.1734C182.51 30.1734 182.859 28.8602 183.252 27.343V27.3298C183.321 27.1557 184.552 24.1626 185.426 21.0409C186.255 18.1225 186.734 15.0433 186.734 15.0433L187.523 12.6736C187.523 12.6736 188.128 12.0735 188.621 11.3442C189.098 10.658 189.464 9.84258 189.464 9.84258C189.464 9.84258 189.681 9.53507 190.163 9.23594C190.485 9.02834 191.033 8.87519 191.033 8.87519L193.459 8.43487C193.459 8.43487 194.252 8.30146 194.125 7.87788C194.003 7.45192 192.866 7.50038 192.866 7.50038C192.866 7.50038 190.156 7.80191 190.029 7.64935C189.899 7.4938 193.064 5.21143 193.064 5.21143C193.064 5.21143 193.907 4.51206 193.617 4.02387C193.325 3.53689 192.322 4.27395 192.322 4.27395C192.322 4.27395 189.24 6.38642 188.994 6.40077C188.758 6.42171 191.225 2.99486 191.225 2.99486C191.225 2.99486 191.971 1.94611 191.576 1.50579C191.181 1.07384 190.446 2.00533 190.446 2.00533C190.446 2.00533 187.772 5.2557 187.642 5.40048C187.504 5.55543 187.281 5.36697 187.128 5.17852C186.997 5.01041 187.077 4.69872 187.077 4.69872L187.483 1.89166C187.483 1.89166 187.492 1.21802 186.95 1.03435C186.383 0.836329 186.149 1.55903 186.149 1.55903L185.064 5.68286C185.064 5.68286 184.508 6.5647 183.769 6.82913C183.202 7.03194 182.409 6.62692 182.409 6.62692C182.409 6.62692 181.875 5.94729 181.28 5.54167C180.908 5.29518 180.371 5.25091 180.371 5.25091C180.371 5.25091 179.405 5.17852 179.001 5.68944C178.821 5.92276 179.5 6.22608 179.5 6.22608C179.5 6.22608 180.265 6.61435 180.709 7.13006C181.002 7.46688 181.039 8.01369 181.039 8.01369C181.039 8.01369 180.944 8.34094 181.398 9.07202C181.729 9.60387 182.647 10.6048 182.647 10.6048C182.647 10.6048 182.923 11.0475 183.045 11.5046L183.012 12.6239C182.96 12.8267 182.901 12.9547 182.901 12.9547L180.872 18.2691C180.872 18.2691 180.068 19.8647 179.258 21.7516C178.354 23.8407 177.408 26.2828 176.983 27.1055L176.949 27.2814L176.903 27.3513C176.903 27.3513 176.263 28.2882 175.662 29.4046C175.061 30.5215 173.355 31.6385 173.282 31.7366C173.217 31.8431 171.37 32.159 170.305 33.5888C169.242 35.0187 167.974 35.2777 167.974 35.2777L167.668 35.2191C167.668 35.2191 167.21 33.5129 167.047 32.9852C166.878 32.4575 166.904 32.1165 166.904 32.1165C166.904 32.1165 167.913 31.118 167.896 30.713C167.867 30.3068 167.728 26.835 167.211 26.0459C166.694 25.2526 166.448 24.2182 166.345 23.7917C166.244 23.3627 165.821 22.3433 165.474 22.0412C165.122 21.7372 164.277 21.0893 164.172 20.9248C164.07 20.7645 163.679 20.0735 163.177 19.8264C162.683 19.5871 162.791 19.2407 162.463 18.8973C162.126 18.5479 161.776 18.512 161.776 18.512C161.776 18.512 162.126 18.7525 161.937 18.9601L161.8 19.1121L161.757 19.1635C161.674 19.2407 161.07 19.1019 160.783 19.2C160.497 19.3023 160.162 19.5045 160.162 19.5045C160.162 19.5045 159.769 19.0612 159.051 19.3023C158.328 19.5464 159.397 19.2646 159.397 19.5261C159.397 19.7923 159.197 19.8084 159.133 19.8084C159.071 19.8084 158.533 20.3385 158.178 20.317C157.83 20.296 157.413 20.7645 157.329 20.8291L156.612 20.7645L156.325 20.5383L156.299 20.5132L156.343 20.7034C156.343 20.8428 156.547 20.9093 156.363 21.1868C156.18 21.474 155.992 21.5721 155.885 21.8784C155.785 22.183 155.415 22.7549 155.285 22.6538C155.162 22.5527 155.04 22.5682 155.206 22.3044C155.371 22.0412 155.494 22.0196 155.494 22.0196C155.494 22.0196 154.917 21.9191 154.958 22.6717C154.958 22.6717 154.091 22.8566 154.07 23.2431C154.07 23.2431 154.338 22.9368 154.627 23.1928L154.362 23.3017C154.362 23.3017 154.236 23.7917 154.253 24.153C154.275 24.521 154.128 24.2942 154.051 24.3193C153.971 24.3355 153.492 25.6337 153.492 26.0633C153.492 26.3319 153.391 26.2996 153.317 26.2021C153.352 26.3624 153.358 26.5778 153.26 26.6496C153.078 26.7908 153.549 26.8566 153.509 27.3412C153.47 27.8294 152.952 28.2392 152.952 28.2392L153.363 28.3193L153.43 28.4988L153.549 28.4581C153.549 28.4581 153.825 29.3292 153.842 29.6547C153.864 29.9837 153.923 29.7133 153.946 29.6367L153.97 29.5506C153.97 29.5506 154.374 30.4916 155.43 31.6247C156.488 32.7626 158.596 34.0597 158.761 34.7949C158.761 34.7949 159.294 37.8204 159.007 38.2439L157.874 38.2278L157.777 38.7058C157.777 38.7058 157.534 39.1138 157.328 39.2981C157.128 39.4811 156.566 39.9771 156.566 39.9771L155.863 40.4814C155.699 40.6184 155.533 40.7494 155.363 40.8673C153.476 42.1667 151.436 42.9301 150.015 44.5269C147.862 46.9451 147.471 49.8975 146.007 53.9675C146.401 54.9385 146.958 54.9026 147.199 55.7868L147.23 55.7958L145.866 64.4347C145.58 66.5627 144.453 69.1873 144.557 71.6485C144.231 75.5229 144.557 81.904 144.557 81.904C144.557 81.904 144.762 84.918 145.009 86.0009C145.251 87.0843 146.788 88.6715 146.788 88.6715L149.745 89.5881C149.745 89.5881 150.204 89.7262 150.244 89.32C150.272 88.9144 150.032 88.6422 150.032 88.6422C150.032 88.6422 150.066 88.3042 149.926 88.1379C149.79 87.9662 148.413 87.387 148.413 87.387L147.995 86.9168L147.467 85.8692C147.467 85.7681 147.415 84.5585 147.614 83.8603C147.614 83.8603 148.462 83.9985 148.557 84.2821C148.6 84.4119 149.258 85.3655 149.89 85.5007C150.519 85.6359 150.392 85.3218 150.337 85.0592C150.166 84.4897 149.258 83.3619 149.177 82.8947C149.033 82.0523 148.636 81.2722 148.478 81.0281C148.181 80.6638 147.795 80.4412 147.795 80.4412L147.535 80.1804C147.535 80.1804 149.159 74.6183 149.934 71.849C150.413 69.5576 150.713 67.1299 150.735 66.2253C150.735 66.2253 150.747 65.5235 151.062 64.9809C151.992 63.3434 153.346 58.5053 153.346 58.5053Z"/>
</mask>
<path d="M153.346 58.5053L154.034 58.3408L154.158 57.7054L154.417 57.718C154.894 61.6629 155.245 64.2121 155.25 66.5633C155.276 77.9674 152.783 88.8109 152.666 100.548H163.808C164.836 97.728 165.594 94.2401 166.905 91.7035C167.994 94.273 168.813 97.5132 169.438 100.548H181.062C180.487 92.4902 180.252 86.9641 178.81 76.9013C179.682 76.9294 180.155 76.7565 180.78 76.5381C178.656 69.6485 177.858 50.2056 180.04 40.0279C180.473 38.8625 182.51 33.7222 182.51 30.1734C182.51 30.1734 182.859 28.8602 183.252 27.343V27.3298C183.321 27.1557 184.552 24.1626 185.426 21.0409C186.255 18.1225 186.734 15.0433 186.734 15.0433L187.523 12.6736C187.523 12.6736 188.128 12.0735 188.621 11.3442C189.098 10.658 189.464 9.84258 189.464 9.84258C189.464 9.84258 189.681 9.53507 190.163 9.23594C190.485 9.02834 191.033 8.87519 191.033 8.87519L193.459 8.43487C193.459 8.43487 194.252 8.30146 194.125 7.87788C194.003 7.45192 192.866 7.50038 192.866 7.50038C192.866 7.50038 190.156 7.80191 190.029 7.64935C189.899 7.4938 193.064 5.21143 193.064 5.21143C193.064 5.21143 193.907 4.51206 193.617 4.02387C193.325 3.53689 192.322 4.27395 192.322 4.27395C192.322 4.27395 189.24 6.38642 188.994 6.40077C188.758 6.42171 191.225 2.99486 191.225 2.99486C191.225 2.99486 191.971 1.94611 191.576 1.50579C191.181 1.07384 190.446 2.00533 190.446 2.00533C190.446 2.00533 187.772 5.2557 187.642 5.40048C187.504 5.55543 187.281 5.36697 187.128 5.17852C186.997 5.01041 187.077 4.69872 187.077 4.69872L187.483 1.89166C187.483 1.89166 187.492 1.21802 186.95 1.03435C186.383 0.836329 186.149 1.55903 186.149 1.55903L185.064 5.68286C185.064 5.68286 184.508 6.5647 183.769 6.82913C183.202 7.03194 182.409 6.62692 182.409 6.62692C182.409 6.62692 181.875 5.94729 181.28 5.54167C180.908 5.29518 180.371 5.25091 180.371 5.25091C180.371 5.25091 179.405 5.17852 179.001 5.68944C178.821 5.92276 179.5 6.22608 179.5 6.22608C179.5 6.22608 180.265 6.61435 180.709 7.13006C181.002 7.46688 181.039 8.01369 181.039 8.01369C181.039 8.01369 180.944 8.34094 181.398 9.07202C181.729 9.60387 182.647 10.6048 182.647 10.6048C182.647 10.6048 182.923 11.0475 183.045 11.5046L183.012 12.6239C182.96 12.8267 182.901 12.9547 182.901 12.9547L180.872 18.2691C180.872 18.2691 180.068 19.8647 179.258 21.7516C178.354 23.8407 177.408 26.2828 176.983 27.1055L176.949 27.2814L176.903 27.3513C176.903 27.3513 176.263 28.2882 175.662 29.4046C175.061 30.5215 173.355 31.6385 173.282 31.7366C173.217 31.8431 171.37 32.159 170.305 33.5888C169.242 35.0187 167.974 35.2777 167.974 35.2777L167.668 35.2191C167.668 35.2191 167.21 33.5129 167.047 32.9852C166.878 32.4575 166.904 32.1165 166.904 32.1165C166.904 32.1165 167.913 31.118 167.896 30.713C167.867 30.3068 167.728 26.835 167.211 26.0459C166.694 25.2526 166.448 24.2182 166.345 23.7917C166.244 23.3627 165.821 22.3433 165.474 22.0412C165.122 21.7372 164.277 21.0893 164.172 20.9248C164.07 20.7645 163.679 20.0735 163.177 19.8264C162.683 19.5871 162.791 19.2407 162.463 18.8973C162.126 18.5479 161.776 18.512 161.776 18.512C161.776 18.512 162.126 18.7525 161.937 18.9601L161.8 19.1121L161.757 19.1635C161.674 19.2407 161.07 19.1019 160.783 19.2C160.497 19.3023 160.162 19.5045 160.162 19.5045C160.162 19.5045 159.769 19.0612 159.051 19.3023C158.328 19.5464 159.397 19.2646 159.397 19.5261C159.397 19.7923 159.197 19.8084 159.133 19.8084C159.071 19.8084 158.533 20.3385 158.178 20.317C157.83 20.296 157.413 20.7645 157.329 20.8291L156.612 20.7645L156.325 20.5383L156.299 20.5132L156.343 20.7034C156.343 20.8428 156.547 20.9093 156.363 21.1868C156.18 21.474 155.992 21.5721 155.885 21.8784C155.785 22.183 155.415 22.7549 155.285 22.6538C155.162 22.5527 155.04 22.5682 155.206 22.3044C155.371 22.0412 155.494 22.0196 155.494 22.0196C155.494 22.0196 154.917 21.9191 154.958 22.6717C154.958 22.6717 154.091 22.8566 154.07 23.2431C154.07 23.2431 154.338 22.9368 154.627 23.1928L154.362 23.3017C154.362 23.3017 154.236 23.7917 154.253 24.153C154.275 24.521 154.128 24.2942 154.051 24.3193C153.971 24.3355 153.492 25.6337 153.492 26.0633C153.492 26.3319 153.391 26.2996 153.317 26.2021C153.352 26.3624 153.358 26.5778 153.26 26.6496C153.078 26.7908 153.549 26.8566 153.509 27.3412C153.47 27.8294 152.952 28.2392 152.952 28.2392L153.363 28.3193L153.43 28.4988L153.549 28.4581C153.549 28.4581 153.825 29.3292 153.842 29.6547C153.864 29.9837 153.923 29.7133 153.946 29.6367L153.97 29.5506C153.97 29.5506 154.374 30.4916 155.43 31.6247C156.488 32.7626 158.596 34.0597 158.761 34.7949C158.761 34.7949 159.294 37.8204 159.007 38.2439L157.874 38.2278L157.777 38.7058C157.777 38.7058 157.534 39.1138 157.328 39.2981C157.128 39.4811 156.566 39.9771 156.566 39.9771L155.863 40.4814C155.699 40.6184 155.533 40.7494 155.363 40.8673C153.476 42.1667 151.436 42.9301 150.015 44.5269C147.862 46.9451 147.471 49.8975 146.007 53.9675C146.401 54.9385 146.958 54.9026 147.199 55.7868L147.23 55.7958L145.866 64.4347C145.58 66.5627 144.453 69.1873 144.557 71.6485C144.231 75.5229 144.557 81.904 144.557 81.904C144.557 81.904 144.762 84.918 145.009 86.0009C145.251 87.0843 146.788 88.6715 146.788 88.6715L149.745 89.5881C149.745 89.5881 150.204 89.7262 150.244 89.32C150.272 88.9144 150.032 88.6422 150.032 88.6422C150.032 88.6422 150.066 88.3042 149.926 88.1379C149.79 87.9662 148.413 87.387 148.413 87.387L147.995 86.9168L147.467 85.8692C147.467 85.7681 147.415 84.5585 147.614 83.8603C147.614 83.8603 148.462 83.9985 148.557 84.2821C148.6 84.4119 149.258 85.3655 149.89 85.5007C150.519 85.6359 150.392 85.3218 150.337 85.0592C150.166 84.4897 149.258 83.3619 149.177 82.8947C149.033 82.0523 148.636 81.2722 148.478 81.0281C148.181 80.6638 147.795 80.4412 147.795 80.4412L147.535 80.1804C147.535 80.1804 149.159 74.6183 149.934 71.849C150.413 69.5576 150.713 67.1299 150.735 66.2253C150.735 66.2253 150.747 65.5235 151.062 64.9809C151.992 63.3434 153.346 58.5053 153.346 58.5053Z" fill="white"/>
<path d="M153.346 58.5053L154.034 58.3408L154.158 57.7054L154.417 57.718C154.894 61.6629 155.245 64.2121 155.25 66.5633C155.276 77.9674 152.783 88.8109 152.666 100.548H163.808C164.836 97.728 165.594 94.2401 166.905 91.7035C167.994 94.273 168.813 97.5132 169.438 100.548H181.062C180.487 92.4902 180.252 86.9641 178.81 76.9013C179.682 76.9294 180.155 76.7565 180.78 76.5381C178.656 69.6485 177.858 50.2056 180.04 40.0279C180.473 38.8625 182.51 33.7222 182.51 30.1734C182.51 30.1734 182.859 28.8602 183.252 27.343V27.3298C183.321 27.1557 184.552 24.1626 185.426 21.0409C186.255 18.1225 186.734 15.0433 186.734 15.0433L187.523 12.6736C187.523 12.6736 188.128 12.0735 188.621 11.3442C189.098 10.658 189.464 9.84258 189.464 9.84258C189.464 9.84258 189.681 9.53507 190.163 9.23594C190.485 9.02834 191.033 8.87519 191.033 8.87519L193.459 8.43487C193.459 8.43487 194.252 8.30146 194.125 7.87788C194.003 7.45192 192.866 7.50038 192.866 7.50038C192.866 7.50038 190.156 7.80191 190.029 7.64935C189.899 7.4938 193.064 5.21143 193.064 5.21143C193.064 5.21143 193.907 4.51206 193.617 4.02387C193.325 3.53689 192.322 4.27395 192.322 4.27395C192.322 4.27395 189.24 6.38642 188.994 6.40077C188.758 6.42171 191.225 2.99486 191.225 2.99486C191.225 2.99486 191.971 1.94611 191.576 1.50579C191.181 1.07384 190.446 2.00533 190.446 2.00533C190.446 2.00533 187.772 5.2557 187.642 5.40048C187.504 5.55543 187.281 5.36697 187.128 5.17852C186.997 5.01041 187.077 4.69872 187.077 4.69872L187.483 1.89166C187.483 1.89166 187.492 1.21802 186.95 1.03435C186.383 0.836329 186.149 1.55903 186.149 1.55903L185.064 5.68286C185.064 5.68286 184.508 6.5647 183.769 6.82913C183.202 7.03194 182.409 6.62692 182.409 6.62692C182.409 6.62692 181.875 5.94729 181.28 5.54167C180.908 5.29518 180.371 5.25091 180.371 5.25091C180.371 5.25091 179.405 5.17852 179.001 5.68944C178.821 5.92276 179.5 6.22608 179.5 6.22608C179.5 6.22608 180.265 6.61435 180.709 7.13006C181.002 7.46688 181.039 8.01369 181.039 8.01369C181.039 8.01369 180.944 8.34094 181.398 9.07202C181.729 9.60387 182.647 10.6048 182.647 10.6048C182.647 10.6048 182.923 11.0475 183.045 11.5046L183.012 12.6239C182.96 12.8267 182.901 12.9547 182.901 12.9547L180.872 18.2691C180.872 18.2691 180.068 19.8647 179.258 21.7516C178.354 23.8407 177.408 26.2828 176.983 27.1055L176.949 27.2814L176.903 27.3513C176.903 27.3513 176.263 28.2882 175.662 29.4046C175.061 30.5215 173.355 31.6385 173.282 31.7366C173.217 31.8431 171.37 32.159 170.305 33.5888C169.242 35.0187 167.974 35.2777 167.974 35.2777L167.668 35.2191C167.668 35.2191 167.21 33.5129 167.047 32.9852C166.878 32.4575 166.904 32.1165 166.904 32.1165C166.904 32.1165 167.913 31.118 167.896 30.713C167.867 30.3068 167.728 26.835 167.211 26.0459C166.694 25.2526 166.448 24.2182 166.345 23.7917C166.244 23.3627 165.821 22.3433 165.474 22.0412C165.122 21.7372 164.277 21.0893 164.172 20.9248C164.07 20.7645 163.679 20.0735 163.177 19.8264C162.683 19.5871 162.791 19.2407 162.463 18.8973C162.126 18.5479 161.776 18.512 161.776 18.512C161.776 18.512 162.126 18.7525 161.937 18.9601L161.8 19.1121L161.757 19.1635C161.674 19.2407 161.07 19.1019 160.783 19.2C160.497 19.3023 160.162 19.5045 160.162 19.5045C160.162 19.5045 159.769 19.0612 159.051 19.3023C158.328 19.5464 159.397 19.2646 159.397 19.5261C159.397 19.7923 159.197 19.8084 159.133 19.8084C159.071 19.8084 158.533 20.3385 158.178 20.317C157.83 20.296 157.413 20.7645 157.329 20.8291L156.612 20.7645L156.325 20.5383L156.299 20.5132L156.343 20.7034C156.343 20.8428 156.547 20.9093 156.363 21.1868C156.18 21.474 155.992 21.5721 155.885 21.8784C155.785 22.183 155.415 22.7549 155.285 22.6538C155.162 22.5527 155.04 22.5682 155.206 22.3044C155.371 22.0412 155.494 22.0196 155.494 22.0196C155.494 22.0196 154.917 21.9191 154.958 22.6717C154.958 22.6717 154.091 22.8566 154.07 23.2431C154.07 23.2431 154.338 22.9368 154.627 23.1928L154.362 23.3017C154.362 23.3017 154.236 23.7917 154.253 24.153C154.275 24.521 154.128 24.2942 154.051 24.3193C153.971 24.3355 153.492 25.6337 153.492 26.0633C153.492 26.3319 153.391 26.2996 153.317 26.2021C153.352 26.3624 153.358 26.5778 153.26 26.6496C153.078 26.7908 153.549 26.8566 153.509 27.3412C153.47 27.8294 152.952 28.2392 152.952 28.2392L153.363 28.3193L153.43 28.4988L153.549 28.4581C153.549 28.4581 153.825 29.3292 153.842 29.6547C153.864 29.9837 153.923 29.7133 153.946 29.6367L153.97 29.5506C153.97 29.5506 154.374 30.4916 155.43 31.6247C156.488 32.7626 158.596 34.0597 158.761 34.7949C158.761 34.7949 159.294 37.8204 159.007 38.2439L157.874 38.2278L157.777 38.7058C157.777 38.7058 157.534 39.1138 157.328 39.2981C157.128 39.4811 156.566 39.9771 156.566 39.9771L155.863 40.4814C155.699 40.6184 155.533 40.7494 155.363 40.8673C153.476 42.1667 151.436 42.9301 150.015 44.5269C147.862 46.9451 147.471 49.8975 146.007 53.9675C146.401 54.9385 146.958 54.9026 147.199 55.7868L147.23 55.7958L145.866 64.4347C145.58 66.5627 144.453 69.1873 144.557 71.6485C144.231 75.5229 144.557 81.904 144.557 81.904C144.557 81.904 144.762 84.918 145.009 86.0009C145.251 87.0843 146.788 88.6715 146.788 88.6715L149.745 89.5881C149.745 89.5881 150.204 89.7262 150.244 89.32C150.272 88.9144 150.032 88.6422 150.032 88.6422C150.032 88.6422 150.066 88.3042 149.926 88.1379C149.79 87.9662 148.413 87.387 148.413 87.387L147.995 86.9168L147.467 85.8692C147.467 85.7681 147.415 84.5585 147.614 83.8603C147.614 83.8603 148.462 83.9985 148.557 84.2821C148.6 84.4119 149.258 85.3655 149.89 85.5007C150.519 85.6359 150.392 85.3218 150.337 85.0592C150.166 84.4897 149.258 83.3619 149.177 82.8947C149.033 82.0523 148.636 81.2722 148.478 81.0281C148.181 80.6638 147.795 80.4412 147.795 80.4412L147.535 80.1804C147.535 80.1804 149.159 74.6183 149.934 71.849C150.413 69.5576 150.713 67.1299 150.735 66.2253C150.735 66.2253 150.747 65.5235 151.062 64.9809C151.992 63.3434 153.346 58.5053 153.346 58.5053Z" stroke="black" stroke-width="2" mask="url(#path-7-outside-1)"/>
</svg>
