<svg width="225" height="46" viewBox="0 0 225 46" fill="none" xmlns="http://www.w3.org/2000/svg">
<path d="M31.3441 32.2057C31.3441 39.6221 25.2773 45.6365 17.75 45.6365V13.7937C17.75 6.3772 23.8168 0.362854 31.3441 0.362854V32.2057Z" fill="white"/>
<path d="M6.77831 45.6365C10.5219 45.6365 13.5566 42.6464 13.5566 38.958C13.5566 35.2696 10.5219 32.2795 6.77831 32.2795C3.03475 32.2795 0 35.2696 0 38.958C0 42.6464 3.03475 45.6365 6.77831 45.6365Z" fill="white"/>
<path d="M73.326 6.81997C73.326 5.93443 73.7005 5.08578 74.3372 4.45851C74.9738 3.79435 75.8726 3.42537 76.8088 3.46227C77.7076 3.46227 78.5689 3.79435 79.2056 4.45851C79.8422 5.08578 80.2167 5.93443 80.2167 6.81997V31.726C80.2542 35.0099 78.9434 38.1462 76.5467 40.4339C74.2248 42.7954 71.0416 44.0868 67.7087 44.0499C66.8099 44.0499 65.9485 43.7178 65.3119 43.0536C64.6378 42.4633 64.3008 41.5777 64.3008 40.6922C64.3008 39.8066 64.6753 38.958 65.3119 38.3307C65.9111 37.6666 66.8099 37.3345 67.7087 37.3345C69.2066 37.3714 70.6672 36.7441 71.7157 35.6741C72.7643 34.6409 73.3635 33.2019 73.326 31.726C73.326 31.6891 73.326 6.81997 73.326 6.81997ZM107.592 44.013C102.125 44.0868 96.8442 41.9467 93.0243 38.0355C89.0922 34.272 86.8827 29.1063 86.9576 23.6823C86.8827 18.2583 89.0547 13.0557 93.0243 9.29212C96.8442 5.41785 102.087 3.27778 107.592 3.35158C113.06 3.27778 118.34 5.41785 122.197 9.29212C126.129 13.0557 128.302 18.2583 128.227 23.6823C128.302 29.0694 126.129 34.272 122.197 38.0355C118.377 41.9467 113.097 44.0868 107.592 44.013ZM107.592 10.067C103.922 9.99318 100.402 11.4691 97.8178 14.0519C95.1589 16.561 93.6984 20.0663 93.7359 23.6823C93.6984 27.2983 95.1589 30.8036 97.8178 33.3126C103.173 38.6259 111.899 38.6628 117.291 33.3864C117.329 33.3495 117.366 33.3126 117.366 33.3126C119.988 30.8036 121.448 27.2983 121.411 23.6823C121.486 20.0663 120.025 16.561 117.404 14.0519C114.857 11.4691 111.3 10.0301 107.592 10.067ZM154.816 44.013C149.348 44.0868 144.068 41.9467 140.248 38.0355C136.316 34.272 134.106 29.1063 134.181 23.6823C134.106 18.2583 136.278 13.0557 140.248 9.29212C148.299 1.35909 161.332 1.35909 169.383 9.29212C173.315 13.0557 175.488 18.2583 175.413 23.6823C175.488 29.0694 173.315 34.272 169.383 38.0355C165.563 41.9467 160.283 44.0868 154.816 44.013ZM154.816 10.067C151.108 9.99318 147.55 11.4322 145.004 14.0519C142.345 16.561 140.884 20.0663 140.922 23.6823C140.884 27.2983 142.345 30.8036 145.004 33.3126C150.359 38.6259 159.085 38.6628 164.477 33.3864C164.515 33.3495 164.552 33.3126 164.552 33.3126C167.174 30.8036 168.634 27.2983 168.597 23.6823C168.634 20.0663 167.174 16.561 164.552 14.0519C161.968 11.4691 158.448 10.0301 154.816 10.067ZM222.149 3.46227C222.898 3.64676 223.535 4.08953 223.984 4.67989C224.434 5.23336 224.696 5.97133 224.696 6.67238V40.6922C224.696 41.5777 224.359 42.4264 223.722 43.0536C222.411 44.3451 220.239 44.382 218.929 43.0536C218.292 42.4264 217.917 41.5777 217.955 40.6922V18.6642L207.244 36.0799L207.132 36.2644V36.3751L206.982 36.5227L206.645 36.7441L206.533 36.8548L206.383 37.0024L206.196 37.1131L206.009 37.2238H205.859C205.409 37.4083 204.96 37.4821 204.473 37.4821H204.361C204.099 37.4452 203.837 37.4083 203.612 37.3345H203.2L202.975 37.2238L202.788 37.0762L202.039 36.8548L201.927 36.7441L201.814 36.6334L201.665 36.4858C201.665 36.4489 201.665 36.412 201.665 36.3751L201.515 36.1906L190.692 18.6642V40.6922C190.692 41.5777 190.355 42.4264 189.681 43.0536C189.082 43.6809 188.22 44.013 187.359 44.013C185.486 43.9761 184.026 42.5002 183.989 40.6922V6.70927C183.989 5.97132 184.213 5.27026 184.7 4.71679C185.149 4.12643 185.786 3.68366 186.535 3.49917C187.247 3.31468 187.996 3.35157 188.67 3.60986C189.381 3.86814 189.943 4.38472 190.355 5.01198L204.473 27.9993L218.592 5.01198C218.929 4.38472 219.453 3.90504 220.09 3.60986L221.138 3.20398L222.149 3.46227Z" fill="white"/>
</svg>
