<svg width="257" height="58" viewBox="0 0 257 58" fill="none" xmlns="http://www.w3.org/2000/svg">
<path d="M63.9805 43.1786V4.81213H87.3098V9.62225H68.8113V21.4185H85.4246V26.2286H68.8113V38.2539H88.6058V43.0641H63.9805V43.1786Z" fill="white"/>
<path d="M113.111 43.1774L105.099 32.9845L97.0865 43.1774H91.4309L102.389 29.5487L90.8418 15.4619H97.2043L105.099 25.9984L113.111 15.4619H119.355L108.398 29.5487L118.766 43.1774H113.111Z" fill="white"/>
<path d="M126.546 39.0556V57.9525H121.715V29.6644C121.715 22.4492 127.37 14.7759 136.207 14.7759C145.162 14.7759 151.878 20.2732 151.878 29.3208C151.878 38.1394 145.044 44.2093 137.268 44.2093C133.497 44.2093 128.431 42.6059 126.546 39.0556ZM146.812 29.3208C146.812 23.1364 142.688 19.4715 135.383 19.8151C131.848 19.9296 126.428 22.4492 126.899 31.2678C127.017 34.1309 130.08 39.5137 136.796 39.5137C142.57 39.5137 146.812 36.307 146.812 29.3208Z" fill="white"/>
<path d="M156.002 43.1755V15.46H160.833V18.4377C163.189 15.8036 166.842 14.8874 170.73 14.8874V19.9266C170.141 19.812 164.368 19.1249 160.833 26.4546V43.29H156.002V43.1755Z" fill="white"/>
<path d="M172.027 29.3208C172.027 21.304 177.919 14.7759 186.048 14.7759C196.181 14.7759 199.952 21.304 199.952 29.6644V31.9549H177.329C177.683 37.2232 182.514 39.9718 186.991 39.8573C190.29 39.7427 192.529 38.8265 194.885 36.536L198.067 39.7427C195.121 42.4914 191.351 44.3238 186.755 44.3238C178.154 44.2093 172.027 38.0248 172.027 29.3208ZM185.695 19.4715C181.1 19.4715 177.565 23.3654 177.329 27.6029H194.885C194.885 23.48 191.822 19.4715 185.695 19.4715Z" fill="white"/>
<path d="M202.426 39.2828L205.961 36.1906C205.843 36.1906 207.728 38.023 207.964 38.1375C208.788 38.8247 209.613 39.2828 210.674 39.5118C213.737 40.3135 219.275 40.0845 219.746 35.9615C219.982 33.671 218.214 32.4112 216.211 31.6095C213.619 30.6933 210.791 30.3497 208.199 29.2044C205.254 27.9446 203.368 25.7686 203.368 22.5619C203.368 14.2014 215.622 12.8271 221.16 16.721C221.396 16.9501 224.106 19.3551 223.988 19.3551L220.453 22.1038C218.686 20.0423 217.036 19.0116 213.266 19.0116C211.38 19.0116 208.788 19.8133 208.317 21.7602C207.61 24.5089 210.791 25.5396 212.912 26.1122C215.74 26.7994 218.803 27.2575 221.278 28.7463C224.695 30.8078 225.519 35.2743 224.223 38.7101C222.809 42.4895 218.568 43.9784 214.797 44.0929C210.32 44.322 206.432 42.9476 203.251 39.8554C203.015 39.8554 202.426 39.2828 202.426 39.2828Z" fill="white"/>
<path d="M227.282 39.2828L230.817 36.1906C230.699 36.1906 232.584 38.023 232.82 38.1375C233.645 38.8247 234.47 39.2828 235.53 39.5118C238.593 40.3135 244.131 40.0845 244.602 35.9615C244.838 33.671 243.071 32.4112 241.068 31.6095C238.476 30.6933 235.648 30.3497 233.056 29.2044C230.11 27.9446 228.225 25.7686 228.225 22.5619C228.225 14.2014 240.479 12.8271 246.016 16.721C246.252 16.9501 248.962 19.3551 248.844 19.3551L245.309 22.1038C243.542 20.0423 241.892 19.0116 238.122 19.0116C236.237 19.0116 233.645 19.8133 233.173 21.7602C232.467 24.5089 235.648 25.5396 237.769 26.1122C240.596 26.7994 243.66 27.2575 246.134 28.7463C249.551 30.8078 250.376 35.2743 249.08 38.7101C247.666 42.4895 243.424 43.9784 239.654 44.0929C235.176 44.322 231.288 42.9476 228.107 39.8554C227.871 39.8554 227.282 39.2828 227.282 39.2828Z" fill="white"/>
<path d="M250.262 15.4589V12.4812H249.201V11.9086H252.029V12.4812H250.969V15.4589H250.262Z" fill="white"/>
<path d="M255.565 15.4589V12.7103L254.504 15.4589H254.269L253.208 12.7103V15.4589H252.619V11.9086H253.562L254.504 14.3136L255.447 11.9086H256.39V15.4589H255.565Z" fill="white"/>
<path d="M31.2236 43.1777L27.6888 34.0156H8.60121L5.06647 43.1777H0L15.3172 4.81128H20.855L36.0544 43.1777H31.2236ZM17.9094 10.3086L10.7221 29.32H25.6858L17.9094 10.3086Z" fill="white"/>
<path d="M39.2354 43.1786V4.81213H44.184V43.1786H39.2354Z" fill="white"/>
<path d="M51.6064 43.1809V16.0381H56.5551V43.1809H51.6064Z" fill="white"/>
<path d="M61.2694 7.21517C61.2694 7.10064 61.2694 7.10064 61.2694 6.98612C61.2694 6.87159 61.2694 6.87159 61.2694 6.75707C57.499 6.64254 54.4356 3.66485 54.3178 0C54.2 0 54.0821 0 53.9643 0C53.8465 0 53.7287 0 53.6108 0C53.493 3.66485 50.4296 6.64254 46.6592 6.75707C46.6592 6.87159 46.6592 6.87159 46.6592 6.98612C46.6592 7.10064 46.6592 7.10064 46.6592 7.21517C50.4296 7.32969 53.493 10.3074 53.6108 13.9723C53.7287 13.9723 53.8465 13.9723 53.9643 13.9723C54.0821 13.9723 54.2 13.9723 54.3178 13.9723C54.4356 10.3074 57.499 7.32969 61.2694 7.21517Z" fill="white"/>
</svg>
