<svg width="9" height="15" viewBox="0 0 9 15" fill="none" xmlns="http://www.w3.org/2000/svg">
<path d="M2.41078 8.51954L2.39793 14.9999L5.65978 15L5.67264 8.51962H8.25575C8.48804 8.51962 8.68367 8.36901 8.71101 8.16912L8.99675 6.08022C9.0291 5.84395 8.81606 5.6362 8.54149 5.6362H5.65978V3.88881C5.65978 3.09636 5.91373 2.55638 7.22518 2.55638L8.43955 2.5559C8.69263 2.55576 8.89778 2.37796 8.89778 2.15863V0.397266C8.89778 0.177849 8.69247 0 8.43929 0H6.46048C4.04898 0 2.39798 1.27542 2.39798 3.61776V5.63616H0.458485C0.204592 5.63616 -0.000969332 5.81494 3.43836e-06 6.03493L0.00932065 8.12382C0.0102934 8.34262 0.215241 8.51954 0.467752 8.51954H2.41078Z" fill="white"/>
</svg>
