<svg width="110" height="110" viewBox="0 0 110 110" fill="none" xmlns="http://www.w3.org/2000/svg">
<circle cx="55" cy="55" r="52" stroke="#2BF12E" stroke-width="6"/>
<path d="M71.2829 48.9464C72.3578 47.6856 72.2072 45.7921 70.9464 44.7171C69.6856 43.6422 67.7921 43.7928 66.7171 45.0536L71.2829 48.9464ZM52.8 66L50.6637 68.1062C51.2539 68.7049 52.0683 69.0284 52.9084 68.998C53.7486 68.9677 54.5374 68.5862 55.0829 67.9464L52.8 66ZM44.1363 52.9397C42.973 51.7598 41.0736 51.7464 39.8938 52.9096C38.7139 54.0729 38.7005 55.9723 39.8637 57.1522L44.1363 52.9397ZM54.9363 63.8938L44.1363 52.9397L39.8637 57.1522L50.6637 68.1062L54.9363 63.8938ZM66.7171 45.0536L50.5172 64.0536L55.0829 67.9464L71.2829 48.9464L66.7171 45.0536Z" fill="#2BF12E"/>
</svg>
