<svg width="15" height="15" viewBox="0 0 15 15" fill="none" xmlns="http://www.w3.org/2000/svg">
<path d="M14.9961 14.9992V14.9986H14.9998V9.49743C14.9998 6.80623 14.4205 4.73315 11.2743 4.73315C9.76182 4.73315 8.74684 5.56314 8.33247 6.34999H8.28872V4.9844H5.30566V14.9986H8.41185V10.0399C8.41185 8.73432 8.65934 7.47184 10.2762 7.47184C11.8693 7.47184 11.893 8.96181 11.893 10.1237V14.9992H14.9961Z" fill="white"/>
<path d="M0.24707 4.98535H3.35701V14.9995H0.24707V4.98535Z" fill="white"/>
<path d="M1.80121 0C0.806859 0 0 0.806859 0 1.80121C0 2.79557 0.806859 3.6193 1.80121 3.6193C2.79557 3.6193 3.60243 2.79557 3.60243 1.80121C3.6018 0.806859 2.79494 0 1.80121 0V0Z" fill="white"/>
</svg>
